<?xml version="1.0" encoding="utf-8"?>
<!DOCTYPE svg PUBLIC "-//W3C//DTD SVG 1.1//EN"
  "http://www.w3.org/Graphics/SVG/1.1/DTD/svg11.dtd">
<svg version="1.1" width="800px" height="800px"
  viewBox="0 0 800 800"
  preserveAspectRatio="xMidYMid"
  fill-rule="evenodd"
  xmlns="http://www.w3.org/2000/svg"
  xmlns:xlink="http://www.w3.org/1999/xlink">
<rect x="0" y="0" width="800" height="800" style=" fill:#000000" />
<rect x="0" y="0" width="50" height="50" style=" fill:#000000" />
<rect x="50" y="0" width="50" height="50" style=" fill:#010000" />
<rect x="100" y="0" width="50" height="50" style=" fill:#020000" />
<rect x="150" y="0" width="50" height="50" style=" fill:#030000" />
<rect x="200" y="0" width="50" height="50" style=" fill:#040000" />
<rect x="250" y="0" width="50" height="50" style=" fill:#050000" />
<rect x="300" y="0" width="50" height="50" style=" fill:#060000" />
<rect x="350" y="0" width="50" height="50" style=" fill:#070000" />
<rect x="400" y="0" width="50" height="50" style=" fill:#080000" />
<rect x="450" y="0" width="50" height="50" style=" fill:#090000" />
<rect x="500" y="0" width="50" height="50" style=" fill:#0a0000" />
<rect x="550" y="0" width="50" height="50" style=" fill:#0b0000" />
<rect x="600" y="0" width="50" height="50" style=" fill:#0c0000" />
<rect x="650" y="0" width="50" height="50" style=" fill:#0d0000" />
<rect x="700" y="0" width="50" height="50" style=" fill:#0e0000" />
<rect x="750" y="0" width="50" height="50" style=" fill:#0f0000" />
<rect x="0" y="50" width="50" height="50" style=" fill:#100000" />
<rect x="50" y="50" width="50" height="50" style=" fill:#110000" />
<rect x="100" y="50" width="50" height="50" style=" fill:#120000" />
<rect x="150" y="50" width="50" height="50" style=" fill:#130000" />
<rect x="200" y="50" width="50" height="50" style=" fill:#140000" />
<rect x="250" y="50" width="50" height="50" style=" fill:#150000" />
<rect x="300" y="50" width="50" height="50" style=" fill:#160000" />
<rect x="350" y="50" width="50" height="50" style=" fill:#170000" />
<rect x="400" y="50" width="50" height="50" style=" fill:#180000" />
<rect x="450" y="50" width="50" height="50" style=" fill:#190000" />
<rect x="500" y="50" width="50" height="50" style=" fill:#1a0000" />
<rect x="550" y="50" width="50" height="50" style=" fill:#1b0000" />
<rect x="600" y="50" width="50" height="50" style=" fill:#1c0000" />
<rect x="650" y="50" width="50" height="50" style=" fill:#1d0000" />
<rect x="700" y="50" width="50" height="50" style=" fill:#1e0000" />
<rect x="750" y="50" width="50" height="50" style=" fill:#1f0000" />
<rect x="0" y="100" width="50" height="50" style=" fill:#200000" />
<rect x="50" y="100" width="50" height="50" style=" fill:#210000" />
<rect x="100" y="100" width="50" height="50" style=" fill:#220000" />
<rect x="150" y="100" width="50" height="50" style=" fill:#230000" />
<rect x="200" y="100" width="50" height="50" style=" fill:#240000" />
<rect x="250" y="100" width="50" height="50" style=" fill:#250000" />
<rect x="300" y="100" width="50" height="50" style=" fill:#260000" />
<rect x="350" y="100" width="50" height="50" style=" fill:#270000" />
<rect x="400" y="100" width="50" height="50" style=" fill:#280000" />
<rect x="450" y="100" width="50" height="50" style=" fill:#290000" />
<rect x="500" y="100" width="50" height="50" style=" fill:#2a0000" />
<rect x="550" y="100" width="50" height="50" style=" fill:#2b0000" />
<rect x="600" y="100" width="50" height="50" style=" fill:#2c0000" />
<rect x="650" y="100" width="50" height="50" style=" fill:#2d0000" />
<rect x="700" y="100" width="50" height="50" style=" fill:#2e0000" />
<rect x="750" y="100" width="50" height="50" style=" fill:#2f0000" />
<rect x="0" y="150" width="50" height="50" style=" fill:#300000" />
<rect x="50" y="150" width="50" height="50" style=" fill:#310000" />
<rect x="100" y="150" width="50" height="50" style=" fill:#320000" />
<rect x="150" y="150" width="50" height="50" style=" fill:#330000" />
<rect x="200" y="150" width="50" height="50" style=" fill:#340000" />
<rect x="250" y="150" width="50" height="50" style=" fill:#350000" />
<rect x="300" y="150" width="50" height="50" style=" fill:#360000" />
<rect x="350" y="150" width="50" height="50" style=" fill:#370000" />
<rect x="400" y="150" width="50" height="50" style=" fill:#380000" />
<rect x="450" y="150" width="50" height="50" style=" fill:#390000" />
<rect x="500" y="150" width="50" height="50" style=" fill:#3a0000" />
<rect x="550" y="150" width="50" height="50" style=" fill:#3b0000" />
<rect x="600" y="150" width="50" height="50" style=" fill:#3c0000" />
<rect x="650" y="150" width="50" height="50" style=" fill:#3d0000" />
<rect x="700" y="150" width="50" height="50" style=" fill:#3e0000" />
<rect x="750" y="150" width="50" height="50" style=" fill:#3f0000" />
<rect x="0" y="200" width="50" height="50" style=" fill:#400000" />
<rect x="50" y="200" width="50" height="50" style=" fill:#410000" />
<rect x="100" y="200" width="50" height="50" style=" fill:#420000" />
<rect x="150" y="200" width="50" height="50" style=" fill:#430000" />
<rect x="200" y="200" width="50" height="50" style=" fill:#440000" />
<rect x="250" y="200" width="50" height="50" style=" fill:#450000" />
<rect x="300" y="200" width="50" height="50" style=" fill:#460000" />
<rect x="350" y="200" width="50" height="50" style=" fill:#470000" />
<rect x="400" y="200" width="50" height="50" style=" fill:#480000" />
<rect x="450" y="200" width="50" height="50" style=" fill:#490000" />
<rect x="500" y="200" width="50" height="50" style=" fill:#4a0000" />
<rect x="550" y="200" width="50" height="50" style=" fill:#4b0000" />
<rect x="600" y="200" width="50" height="50" style=" fill:#4c0000" />
<rect x="650" y="200" width="50" height="50" style=" fill:#4d0000" />
<rect x="700" y="200" width="50" height="50" style=" fill:#4e0000" />
<rect x="750" y="200" width="50" height="50" style=" fill:#4f0000" />
<rect x="0" y="250" width="50" height="50" style=" fill:#500000" />
<rect x="50" y="250" width="50" height="50" style=" fill:#510000" />
<rect x="100" y="250" width="50" height="50" style=" fill:#520000" />
<rect x="150" y="250" width="50" height="50" style=" fill:#530000" />
<rect x="200" y="250" width="50" height="50" style=" fill:#540000" />
<rect x="250" y="250" width="50" height="50" style=" fill:#550000" />
<rect x="300" y="250" width="50" height="50" style=" fill:#560000" />
<rect x="350" y="250" width="50" height="50" style=" fill:#570000" />
<rect x="400" y="250" width="50" height="50" style=" fill:#580000" />
<rect x="450" y="250" width="50" height="50" style=" fill:#590000" />
<rect x="500" y="250" width="50" height="50" style=" fill:#5a0000" />
<rect x="550" y="250" width="50" height="50" style=" fill:#5b0000" />
<rect x="600" y="250" width="50" height="50" style=" fill:#5c0000" />
<rect x="650" y="250" width="50" height="50" style=" fill:#5d0000" />
<rect x="700" y="250" width="50" height="50" style=" fill:#5e0000" />
<rect x="750" y="250" width="50" height="50" style=" fill:#5f0000" />
<rect x="0" y="300" width="50" height="50" style=" fill:#600000" />
<rect x="50" y="300" width="50" height="50" style=" fill:#610000" />
<rect x="100" y="300" width="50" height="50" style=" fill:#620000" />
<rect x="150" y="300" width="50" height="50" style=" fill:#630000" />
<rect x="200" y="300" width="50" height="50" style=" fill:#640000" />
<rect x="250" y="300" width="50" height="50" style=" fill:#650000" />
<rect x="300" y="300" width="50" height="50" style=" fill:#660000" />
<rect x="350" y="300" width="50" height="50" style=" fill:#670000" />
<rect x="400" y="300" width="50" height="50" style=" fill:#680000" />
<rect x="450" y="300" width="50" height="50" style=" fill:#690000" />
<rect x="500" y="300" width="50" height="50" style=" fill:#6a0000" />
<rect x="550" y="300" width="50" height="50" style=" fill:#6b0000" />
<rect x="600" y="300" width="50" height="50" style=" fill:#6c0000" />
<rect x="650" y="300" width="50" height="50" style=" fill:#6d0000" />
<rect x="700" y="300" width="50" height="50" style=" fill:#6e0000" />
<rect x="750" y="300" width="50" height="50" style=" fill:#6f0000" />
<rect x="0" y="350" width="50" height="50" style=" fill:#700000" />
<rect x="50" y="350" width="50" height="50" style=" fill:#710000" />
<rect x="100" y="350" width="50" height="50" style=" fill:#720000" />
<rect x="150" y="350" width="50" height="50" style=" fill:#730000" />
<rect x="200" y="350" width="50" height="50" style=" fill:#740000" />
<rect x="250" y="350" width="50" height="50" style=" fill:#750000" />
<rect x="300" y="350" width="50" height="50" style=" fill:#760000" />
<rect x="350" y="350" width="50" height="50" style=" fill:#770000" />
<rect x="400" y="350" width="50" height="50" style=" fill:#780000" />
<rect x="450" y="350" width="50" height="50" style=" fill:#790000" />
<rect x="500" y="350" width="50" height="50" style=" fill:#7a0000" />
<rect x="550" y="350" width="50" height="50" style=" fill:#7b0000" />
<rect x="600" y="350" width="50" height="50" style=" fill:#7c0000" />
<rect x="650" y="350" width="50" height="50" style=" fill:#7d0000" />
<rect x="700" y="350" width="50" height="50" style=" fill:#7e0000" />
<rect x="750" y="350" width="50" height="50" style=" fill:#7f0000" />
<rect x="0" y="400" width="50" height="50" style=" fill:#800000" />
<rect x="50" y="400" width="50" height="50" style=" fill:#810000" />
<rect x="100" y="400" width="50" height="50" style=" fill:#820000" />
<rect x="150" y="400" width="50" height="50" style=" fill:#830000" />
<rect x="200" y="400" width="50" height="50" style=" fill:#840000" />
<rect x="250" y="400" width="50" height="50" style=" fill:#850000" />
<rect x="300" y="400" width="50" height="50" style=" fill:#860000" />
<rect x="350" y="400" width="50" height="50" style=" fill:#870000" />
<rect x="400" y="400" width="50" height="50" style=" fill:#880000" />
<rect x="450" y="400" width="50" height="50" style=" fill:#890000" />
<rect x="500" y="400" width="50" height="50" style=" fill:#8a0000" />
<rect x="550" y="400" width="50" height="50" style=" fill:#8b0000" />
<rect x="600" y="400" width="50" height="50" style=" fill:#8c0000" />
<rect x="650" y="400" width="50" height="50" style=" fill:#8d0000" />
<rect x="700" y="400" width="50" height="50" style=" fill:#8e0000" />
<rect x="750" y="400" width="50" height="50" style=" fill:#8f0000" />
<rect x="0" y="450" width="50" height="50" style=" fill:#900000" />
<rect x="50" y="450" width="50" height="50" style=" fill:#910000" />
<rect x="100" y="450" width="50" height="50" style=" fill:#920000" />
<rect x="150" y="450" width="50" height="50" style=" fill:#930000" />
<rect x="200" y="450" width="50" height="50" style=" fill:#940000" />
<rect x="250" y="450" width="50" height="50" style=" fill:#950000" />
<rect x="300" y="450" width="50" height="50" style=" fill:#960000" />
<rect x="350" y="450" width="50" height="50" style=" fill:#970000" />
<rect x="400" y="450" width="50" height="50" style=" fill:#980000" />
<rect x="450" y="450" width="50" height="50" style=" fill:#990000" />
<rect x="500" y="450" width="50" height="50" style=" fill:#9a0000" />
<rect x="550" y="450" width="50" height="50" style=" fill:#9b0000" />
<rect x="600" y="450" width="50" height="50" style=" fill:#9c0000" />
<rect x="650" y="450" width="50" height="50" style=" fill:#9d0000" />
<rect x="700" y="450" width="50" height="50" style=" fill:#9e0000" />
<rect x="750" y="450" width="50" height="50" style=" fill:#9f0000" />
<rect x="0" y="500" width="50" height="50" style=" fill:#a00000" />
<rect x="50" y="500" width="50" height="50" style=" fill:#a10000" />
<rect x="100" y="500" width="50" height="50" style=" fill:#a20000" />
<rect x="150" y="500" width="50" height="50" style=" fill:#a30000" />
<rect x="200" y="500" width="50" height="50" style=" fill:#a40000" />
<rect x="250" y="500" width="50" height="50" style=" fill:#a50000" />
<rect x="300" y="500" width="50" height="50" style=" fill:#a60000" />
<rect x="350" y="500" width="50" height="50" style=" fill:#a70000" />
<rect x="400" y="500" width="50" height="50" style=" fill:#a80000" />
<rect x="450" y="500" width="50" height="50" style=" fill:#a90000" />
<rect x="500" y="500" width="50" height="50" style=" fill:#aa0000" />
<rect x="550" y="500" width="50" height="50" style=" fill:#ab0000" />
<rect x="600" y="500" width="50" height="50" style=" fill:#ac0000" />
<rect x="650" y="500" width="50" height="50" style=" fill:#ad0000" />
<rect x="700" y="500" width="50" height="50" style=" fill:#ae0000" />
<rect x="750" y="500" width="50" height="50" style=" fill:#af0000" />
<rect x="0" y="550" width="50" height="50" style=" fill:#b00000" />
<rect x="50" y="550" width="50" height="50" style=" fill:#b10000" />
<rect x="100" y="550" width="50" height="50" style=" fill:#b20000" />
<rect x="150" y="550" width="50" height="50" style=" fill:#b30000" />
<rect x="200" y="550" width="50" height="50" style=" fill:#b40000" />
<rect x="250" y="550" width="50" height="50" style=" fill:#b50000" />
<rect x="300" y="550" width="50" height="50" style=" fill:#b60000" />
<rect x="350" y="550" width="50" height="50" style=" fill:#b70000" />
<rect x="400" y="550" width="50" height="50" style=" fill:#b80000" />
<rect x="450" y="550" width="50" height="50" style=" fill:#b90000" />
<rect x="500" y="550" width="50" height="50" style=" fill:#ba0000" />
<rect x="550" y="550" width="50" height="50" style=" fill:#bb0000" />
<rect x="600" y="550" width="50" height="50" style=" fill:#bc0000" />
<rect x="650" y="550" width="50" height="50" style=" fill:#bd0000" />
<rect x="700" y="550" width="50" height="50" style=" fill:#be0000" />
<rect x="750" y="550" width="50" height="50" style=" fill:#bf0000" />
<rect x="0" y="600" width="50" height="50" style=" fill:#c00000" />
<rect x="50" y="600" width="50" height="50" style=" fill:#c10000" />
<rect x="100" y="600" width="50" height="50" style=" fill:#c20000" />
<rect x="150" y="600" width="50" height="50" style=" fill:#c30000" />
<rect x="200" y="600" width="50" height="50" style=" fill:#c40000" />
<rect x="250" y="600" width="50" height="50" style=" fill:#c50000" />
<rect x="300" y="600" width="50" height="50" style=" fill:#c60000" />
<rect x="350" y="600" width="50" height="50" style=" fill:#c70000" />
<rect x="400" y="600" width="50" height="50" style=" fill:#c80000" />
<rect x="450" y="600" width="50" height="50" style=" fill:#c90000" />
<rect x="500" y="600" width="50" height="50" style=" fill:#ca0000" />
<rect x="550" y="600" width="50" height="50" style=" fill:#cb0000" />
<rect x="600" y="600" width="50" height="50" style=" fill:#cc0000" />
<rect x="650" y="600" width="50" height="50" style=" fill:#cd0000" />
<rect x="700" y="600" width="50" height="50" style=" fill:#ce0000" />
<rect x="750" y="600" width="50" height="50" style=" fill:#cf0000" />
<rect x="0" y="650" width="50" height="50" style=" fill:#d00000" />
<rect x="50" y="650" width="50" height="50" style=" fill:#d10000" />
<rect x="100" y="650" width="50" height="50" style=" fill:#d20000" />
<rect x="150" y="650" width="50" height="50" style=" fill:#d30000" />
<rect x="200" y="650" width="50" height="50" style=" fill:#d40000" />
<rect x="250" y="650" width="50" height="50" style=" fill:#d50000" />
<rect x="300" y="650" width="50" height="50" style=" fill:#d60000" />
<rect x="350" y="650" width="50" height="50" style=" fill:#d70000" />
<rect x="400" y="650" width="50" height="50" style=" fill:#d80000" />
<rect x="450" y="650" width="50" height="50" style=" fill:#d90000" />
<rect x="500" y="650" width="50" height="50" style=" fill:#da0000" />
<rect x="550" y="650" width="50" height="50" style=" fill:#db0000" />
<rect x="600" y="650" width="50" height="50" style=" fill:#dc0000" />
<rect x="650" y="650" width="50" height="50" style=" fill:#dd0000" />
<rect x="700" y="650" width="50" height="50" style=" fill:#de0000" />
<rect x="750" y="650" width="50" height="50" style=" fill:#df0000" />
<rect x="0" y="700" width="50" height="50" style=" fill:#e00000" />
<rect x="50" y="700" width="50" height="50" style=" fill:#e10000" />
<rect x="100" y="700" width="50" height="50" style=" fill:#e20000" />
<rect x="150" y="700" width="50" height="50" style=" fill:#e30000" />
<rect x="200" y="700" width="50" height="50" style=" fill:#e40000" />
<rect x="250" y="700" width="50" height="50" style=" fill:#e50000" />
<rect x="300" y="700" width="50" height="50" style=" fill:#e60000" />
<rect x="350" y="700" width="50" height="50" style=" fill:#e70000" />
<rect x="400" y="700" width="50" height="50" style=" fill:#e80000" />
<rect x="450" y="700" width="50" height="50" style=" fill:#e90000" />
<rect x="500" y="700" width="50" height="50" style=" fill:#ea0000" />
<rect x="550" y="700" width="50" height="50" style=" fill:#eb0000" />
<rect x="600" y="700" width="50" height="50" style=" fill:#ec0000" />
<rect x="650" y="700" width="50" height="50" style=" fill:#ed0000" />
<rect x="700" y="700" width="50" height="50" style=" fill:#ee0000" />
<rect x="750" y="700" width="50" height="50" style=" fill:#ef0000" />
<rect x="0" y="750" width="50" height="50" style=" fill:#f00000" />
<rect x="50" y="750" width="50" height="50" style=" fill:#f10000" />
<rect x="100" y="750" width="50" height="50" style=" fill:#f20000" />
<rect x="150" y="750" width="50" height="50" style=" fill:#f30000" />
<rect x="200" y="750" width="50" height="50" style=" fill:#f40000" />
<rect x="250" y="750" width="50" height="50" style=" fill:#f50000" />
<rect x="300" y="750" width="50" height="50" style=" fill:#f60000" />
<rect x="350" y="750" width="50" height="50" style=" fill:#f70000" />
<rect x="400" y="750" width="50" height="50" style=" fill:#f80000" />
<rect x="450" y="750" width="50" height="50" style=" fill:#f90000" />
<rect x="500" y="750" width="50" height="50" style=" fill:#fa0000" />
<rect x="550" y="750" width="50" height="50" style=" fill:#fb0000" />
<rect x="600" y="750" width="50" height="50" style=" fill:#fc0000" />
<rect x="650" y="750" width="50" height="50" style=" fill:#fd0000" />
<rect x="700" y="750" width="50" height="50" style=" fill:#fe0000" />
<rect x="750" y="750" width="50" height="50" style=" fill:#ff0000" />
</svg>
