<?xml version="1.0" encoding="utf-8"?>
<!DOCTYPE svg PUBLIC "-//W3C//DTD SVG 1.1//EN"
  "http://www.w3.org/Graphics/SVG/1.1/DTD/svg11.dtd">
<svg version="1.1" width="800px" height="800px"
  viewBox="0 0 800 800"
  preserveAspectRatio="xMidYMid"
  fill-rule="evenodd"
  xmlns="http://www.w3.org/2000/svg"
  xmlns:xlink="http://www.w3.org/1999/xlink">
<rect x="0" y="0" width="800" height="800" style=" fill:#000000" />
<rect x="0" y="0" width="50" height="50" style=" fill:#000000" />
<rect x="50" y="0" width="50" height="50" style=" fill:#000100" />
<rect x="100" y="0" width="50" height="50" style=" fill:#000200" />
<rect x="150" y="0" width="50" height="50" style=" fill:#000300" />
<rect x="200" y="0" width="50" height="50" style=" fill:#000400" />
<rect x="250" y="0" width="50" height="50" style=" fill:#000500" />
<rect x="300" y="0" width="50" height="50" style=" fill:#000600" />
<rect x="350" y="0" width="50" height="50" style=" fill:#000700" />
<rect x="400" y="0" width="50" height="50" style=" fill:#000800" />
<rect x="450" y="0" width="50" height="50" style=" fill:#000900" />
<rect x="500" y="0" width="50" height="50" style=" fill:#000a00" />
<rect x="550" y="0" width="50" height="50" style=" fill:#000b00" />
<rect x="600" y="0" width="50" height="50" style=" fill:#000c00" />
<rect x="650" y="0" width="50" height="50" style=" fill:#000d00" />
<rect x="700" y="0" width="50" height="50" style=" fill:#000e00" />
<rect x="750" y="0" width="50" height="50" style=" fill:#000f00" />
<rect x="0" y="50" width="50" height="50" style=" fill:#001000" />
<rect x="50" y="50" width="50" height="50" style=" fill:#001100" />
<rect x="100" y="50" width="50" height="50" style=" fill:#001200" />
<rect x="150" y="50" width="50" height="50" style=" fill:#001300" />
<rect x="200" y="50" width="50" height="50" style=" fill:#001400" />
<rect x="250" y="50" width="50" height="50" style=" fill:#001500" />
<rect x="300" y="50" width="50" height="50" style=" fill:#001600" />
<rect x="350" y="50" width="50" height="50" style=" fill:#001700" />
<rect x="400" y="50" width="50" height="50" style=" fill:#001800" />
<rect x="450" y="50" width="50" height="50" style=" fill:#001900" />
<rect x="500" y="50" width="50" height="50" style=" fill:#001a00" />
<rect x="550" y="50" width="50" height="50" style=" fill:#001b00" />
<rect x="600" y="50" width="50" height="50" style=" fill:#001c00" />
<rect x="650" y="50" width="50" height="50" style=" fill:#001d00" />
<rect x="700" y="50" width="50" height="50" style=" fill:#001e00" />
<rect x="750" y="50" width="50" height="50" style=" fill:#001f00" />
<rect x="0" y="100" width="50" height="50" style=" fill:#002000" />
<rect x="50" y="100" width="50" height="50" style=" fill:#002100" />
<rect x="100" y="100" width="50" height="50" style=" fill:#002200" />
<rect x="150" y="100" width="50" height="50" style=" fill:#002300" />
<rect x="200" y="100" width="50" height="50" style=" fill:#002400" />
<rect x="250" y="100" width="50" height="50" style=" fill:#002500" />
<rect x="300" y="100" width="50" height="50" style=" fill:#002600" />
<rect x="350" y="100" width="50" height="50" style=" fill:#002700" />
<rect x="400" y="100" width="50" height="50" style=" fill:#002800" />
<rect x="450" y="100" width="50" height="50" style=" fill:#002900" />
<rect x="500" y="100" width="50" height="50" style=" fill:#002a00" />
<rect x="550" y="100" width="50" height="50" style=" fill:#002b00" />
<rect x="600" y="100" width="50" height="50" style=" fill:#002c00" />
<rect x="650" y="100" width="50" height="50" style=" fill:#002d00" />
<rect x="700" y="100" width="50" height="50" style=" fill:#002e00" />
<rect x="750" y="100" width="50" height="50" style=" fill:#002f00" />
<rect x="0" y="150" width="50" height="50" style=" fill:#003000" />
<rect x="50" y="150" width="50" height="50" style=" fill:#003100" />
<rect x="100" y="150" width="50" height="50" style=" fill:#003200" />
<rect x="150" y="150" width="50" height="50" style=" fill:#003300" />
<rect x="200" y="150" width="50" height="50" style=" fill:#003400" />
<rect x="250" y="150" width="50" height="50" style=" fill:#003500" />
<rect x="300" y="150" width="50" height="50" style=" fill:#003600" />
<rect x="350" y="150" width="50" height="50" style=" fill:#003700" />
<rect x="400" y="150" width="50" height="50" style=" fill:#003800" />
<rect x="450" y="150" width="50" height="50" style=" fill:#003900" />
<rect x="500" y="150" width="50" height="50" style=" fill:#003a00" />
<rect x="550" y="150" width="50" height="50" style=" fill:#003b00" />
<rect x="600" y="150" width="50" height="50" style=" fill:#003c00" />
<rect x="650" y="150" width="50" height="50" style=" fill:#003d00" />
<rect x="700" y="150" width="50" height="50" style=" fill:#003e00" />
<rect x="750" y="150" width="50" height="50" style=" fill:#003f00" />
<rect x="0" y="200" width="50" height="50" style=" fill:#004000" />
<rect x="50" y="200" width="50" height="50" style=" fill:#004100" />
<rect x="100" y="200" width="50" height="50" style=" fill:#004200" />
<rect x="150" y="200" width="50" height="50" style=" fill:#004300" />
<rect x="200" y="200" width="50" height="50" style=" fill:#004400" />
<rect x="250" y="200" width="50" height="50" style=" fill:#004500" />
<rect x="300" y="200" width="50" height="50" style=" fill:#004600" />
<rect x="350" y="200" width="50" height="50" style=" fill:#004700" />
<rect x="400" y="200" width="50" height="50" style=" fill:#004800" />
<rect x="450" y="200" width="50" height="50" style=" fill:#004900" />
<rect x="500" y="200" width="50" height="50" style=" fill:#004a00" />
<rect x="550" y="200" width="50" height="50" style=" fill:#004b00" />
<rect x="600" y="200" width="50" height="50" style=" fill:#004c00" />
<rect x="650" y="200" width="50" height="50" style=" fill:#004d00" />
<rect x="700" y="200" width="50" height="50" style=" fill:#004e00" />
<rect x="750" y="200" width="50" height="50" style=" fill:#004f00" />
<rect x="0" y="250" width="50" height="50" style=" fill:#005000" />
<rect x="50" y="250" width="50" height="50" style=" fill:#005100" />
<rect x="100" y="250" width="50" height="50" style=" fill:#005200" />
<rect x="150" y="250" width="50" height="50" style=" fill:#005300" />
<rect x="200" y="250" width="50" height="50" style=" fill:#005400" />
<rect x="250" y="250" width="50" height="50" style=" fill:#005500" />
<rect x="300" y="250" width="50" height="50" style=" fill:#005600" />
<rect x="350" y="250" width="50" height="50" style=" fill:#005700" />
<rect x="400" y="250" width="50" height="50" style=" fill:#005800" />
<rect x="450" y="250" width="50" height="50" style=" fill:#005900" />
<rect x="500" y="250" width="50" height="50" style=" fill:#005a00" />
<rect x="550" y="250" width="50" height="50" style=" fill:#005b00" />
<rect x="600" y="250" width="50" height="50" style=" fill:#005c00" />
<rect x="650" y="250" width="50" height="50" style=" fill:#005d00" />
<rect x="700" y="250" width="50" height="50" style=" fill:#005e00" />
<rect x="750" y="250" width="50" height="50" style=" fill:#005f00" />
<rect x="0" y="300" width="50" height="50" style=" fill:#006000" />
<rect x="50" y="300" width="50" height="50" style=" fill:#006100" />
<rect x="100" y="300" width="50" height="50" style=" fill:#006200" />
<rect x="150" y="300" width="50" height="50" style=" fill:#006300" />
<rect x="200" y="300" width="50" height="50" style=" fill:#006400" />
<rect x="250" y="300" width="50" height="50" style=" fill:#006500" />
<rect x="300" y="300" width="50" height="50" style=" fill:#006600" />
<rect x="350" y="300" width="50" height="50" style=" fill:#006700" />
<rect x="400" y="300" width="50" height="50" style=" fill:#006800" />
<rect x="450" y="300" width="50" height="50" style=" fill:#006900" />
<rect x="500" y="300" width="50" height="50" style=" fill:#006a00" />
<rect x="550" y="300" width="50" height="50" style=" fill:#006b00" />
<rect x="600" y="300" width="50" height="50" style=" fill:#006c00" />
<rect x="650" y="300" width="50" height="50" style=" fill:#006d00" />
<rect x="700" y="300" width="50" height="50" style=" fill:#006e00" />
<rect x="750" y="300" width="50" height="50" style=" fill:#006f00" />
<rect x="0" y="350" width="50" height="50" style=" fill:#007000" />
<rect x="50" y="350" width="50" height="50" style=" fill:#007100" />
<rect x="100" y="350" width="50" height="50" style=" fill:#007200" />
<rect x="150" y="350" width="50" height="50" style=" fill:#007300" />
<rect x="200" y="350" width="50" height="50" style=" fill:#007400" />
<rect x="250" y="350" width="50" height="50" style=" fill:#007500" />
<rect x="300" y="350" width="50" height="50" style=" fill:#007600" />
<rect x="350" y="350" width="50" height="50" style=" fill:#007700" />
<rect x="400" y="350" width="50" height="50" style=" fill:#007800" />
<rect x="450" y="350" width="50" height="50" style=" fill:#007900" />
<rect x="500" y="350" width="50" height="50" style=" fill:#007a00" />
<rect x="550" y="350" width="50" height="50" style=" fill:#007b00" />
<rect x="600" y="350" width="50" height="50" style=" fill:#007c00" />
<rect x="650" y="350" width="50" height="50" style=" fill:#007d00" />
<rect x="700" y="350" width="50" height="50" style=" fill:#007e00" />
<rect x="750" y="350" width="50" height="50" style=" fill:#007f00" />
<rect x="0" y="400" width="50" height="50" style=" fill:#008000" />
<rect x="50" y="400" width="50" height="50" style=" fill:#008100" />
<rect x="100" y="400" width="50" height="50" style=" fill:#008200" />
<rect x="150" y="400" width="50" height="50" style=" fill:#008300" />
<rect x="200" y="400" width="50" height="50" style=" fill:#008400" />
<rect x="250" y="400" width="50" height="50" style=" fill:#008500" />
<rect x="300" y="400" width="50" height="50" style=" fill:#008600" />
<rect x="350" y="400" width="50" height="50" style=" fill:#008700" />
<rect x="400" y="400" width="50" height="50" style=" fill:#008800" />
<rect x="450" y="400" width="50" height="50" style=" fill:#008900" />
<rect x="500" y="400" width="50" height="50" style=" fill:#008a00" />
<rect x="550" y="400" width="50" height="50" style=" fill:#008b00" />
<rect x="600" y="400" width="50" height="50" style=" fill:#008c00" />
<rect x="650" y="400" width="50" height="50" style=" fill:#008d00" />
<rect x="700" y="400" width="50" height="50" style=" fill:#008e00" />
<rect x="750" y="400" width="50" height="50" style=" fill:#008f00" />
<rect x="0" y="450" width="50" height="50" style=" fill:#009000" />
<rect x="50" y="450" width="50" height="50" style=" fill:#009100" />
<rect x="100" y="450" width="50" height="50" style=" fill:#009200" />
<rect x="150" y="450" width="50" height="50" style=" fill:#009300" />
<rect x="200" y="450" width="50" height="50" style=" fill:#009400" />
<rect x="250" y="450" width="50" height="50" style=" fill:#009500" />
<rect x="300" y="450" width="50" height="50" style=" fill:#009600" />
<rect x="350" y="450" width="50" height="50" style=" fill:#009700" />
<rect x="400" y="450" width="50" height="50" style=" fill:#009800" />
<rect x="450" y="450" width="50" height="50" style=" fill:#009900" />
<rect x="500" y="450" width="50" height="50" style=" fill:#009a00" />
<rect x="550" y="450" width="50" height="50" style=" fill:#009b00" />
<rect x="600" y="450" width="50" height="50" style=" fill:#009c00" />
<rect x="650" y="450" width="50" height="50" style=" fill:#009d00" />
<rect x="700" y="450" width="50" height="50" style=" fill:#009e00" />
<rect x="750" y="450" width="50" height="50" style=" fill:#009f00" />
<rect x="0" y="500" width="50" height="50" style=" fill:#00a000" />
<rect x="50" y="500" width="50" height="50" style=" fill:#00a100" />
<rect x="100" y="500" width="50" height="50" style=" fill:#00a200" />
<rect x="150" y="500" width="50" height="50" style=" fill:#00a300" />
<rect x="200" y="500" width="50" height="50" style=" fill:#00a400" />
<rect x="250" y="500" width="50" height="50" style=" fill:#00a500" />
<rect x="300" y="500" width="50" height="50" style=" fill:#00a600" />
<rect x="350" y="500" width="50" height="50" style=" fill:#00a700" />
<rect x="400" y="500" width="50" height="50" style=" fill:#00a800" />
<rect x="450" y="500" width="50" height="50" style=" fill:#00a900" />
<rect x="500" y="500" width="50" height="50" style=" fill:#00aa00" />
<rect x="550" y="500" width="50" height="50" style=" fill:#00ab00" />
<rect x="600" y="500" width="50" height="50" style=" fill:#00ac00" />
<rect x="650" y="500" width="50" height="50" style=" fill:#00ad00" />
<rect x="700" y="500" width="50" height="50" style=" fill:#00ae00" />
<rect x="750" y="500" width="50" height="50" style=" fill:#00af00" />
<rect x="0" y="550" width="50" height="50" style=" fill:#00b000" />
<rect x="50" y="550" width="50" height="50" style=" fill:#00b100" />
<rect x="100" y="550" width="50" height="50" style=" fill:#00b200" />
<rect x="150" y="550" width="50" height="50" style=" fill:#00b300" />
<rect x="200" y="550" width="50" height="50" style=" fill:#00b400" />
<rect x="250" y="550" width="50" height="50" style=" fill:#00b500" />
<rect x="300" y="550" width="50" height="50" style=" fill:#00b600" />
<rect x="350" y="550" width="50" height="50" style=" fill:#00b700" />
<rect x="400" y="550" width="50" height="50" style=" fill:#00b800" />
<rect x="450" y="550" width="50" height="50" style=" fill:#00b900" />
<rect x="500" y="550" width="50" height="50" style=" fill:#00ba00" />
<rect x="550" y="550" width="50" height="50" style=" fill:#00bb00" />
<rect x="600" y="550" width="50" height="50" style=" fill:#00bc00" />
<rect x="650" y="550" width="50" height="50" style=" fill:#00bd00" />
<rect x="700" y="550" width="50" height="50" style=" fill:#00be00" />
<rect x="750" y="550" width="50" height="50" style=" fill:#00bf00" />
<rect x="0" y="600" width="50" height="50" style=" fill:#00c000" />
<rect x="50" y="600" width="50" height="50" style=" fill:#00c100" />
<rect x="100" y="600" width="50" height="50" style=" fill:#00c200" />
<rect x="150" y="600" width="50" height="50" style=" fill:#00c300" />
<rect x="200" y="600" width="50" height="50" style=" fill:#00c400" />
<rect x="250" y="600" width="50" height="50" style=" fill:#00c500" />
<rect x="300" y="600" width="50" height="50" style=" fill:#00c600" />
<rect x="350" y="600" width="50" height="50" style=" fill:#00c700" />
<rect x="400" y="600" width="50" height="50" style=" fill:#00c800" />
<rect x="450" y="600" width="50" height="50" style=" fill:#00c900" />
<rect x="500" y="600" width="50" height="50" style=" fill:#00ca00" />
<rect x="550" y="600" width="50" height="50" style=" fill:#00cb00" />
<rect x="600" y="600" width="50" height="50" style=" fill:#00cc00" />
<rect x="650" y="600" width="50" height="50" style=" fill:#00cd00" />
<rect x="700" y="600" width="50" height="50" style=" fill:#00ce00" />
<rect x="750" y="600" width="50" height="50" style=" fill:#00cf00" />
<rect x="0" y="650" width="50" height="50" style=" fill:#00d000" />
<rect x="50" y="650" width="50" height="50" style=" fill:#00d100" />
<rect x="100" y="650" width="50" height="50" style=" fill:#00d200" />
<rect x="150" y="650" width="50" height="50" style=" fill:#00d300" />
<rect x="200" y="650" width="50" height="50" style=" fill:#00d400" />
<rect x="250" y="650" width="50" height="50" style=" fill:#00d500" />
<rect x="300" y="650" width="50" height="50" style=" fill:#00d600" />
<rect x="350" y="650" width="50" height="50" style=" fill:#00d700" />
<rect x="400" y="650" width="50" height="50" style=" fill:#00d800" />
<rect x="450" y="650" width="50" height="50" style=" fill:#00d900" />
<rect x="500" y="650" width="50" height="50" style=" fill:#00da00" />
<rect x="550" y="650" width="50" height="50" style=" fill:#00db00" />
<rect x="600" y="650" width="50" height="50" style=" fill:#00dc00" />
<rect x="650" y="650" width="50" height="50" style=" fill:#00dd00" />
<rect x="700" y="650" width="50" height="50" style=" fill:#00de00" />
<rect x="750" y="650" width="50" height="50" style=" fill:#00df00" />
<rect x="0" y="700" width="50" height="50" style=" fill:#00e000" />
<rect x="50" y="700" width="50" height="50" style=" fill:#00e100" />
<rect x="100" y="700" width="50" height="50" style=" fill:#00e200" />
<rect x="150" y="700" width="50" height="50" style=" fill:#00e300" />
<rect x="200" y="700" width="50" height="50" style=" fill:#00e400" />
<rect x="250" y="700" width="50" height="50" style=" fill:#00e500" />
<rect x="300" y="700" width="50" height="50" style=" fill:#00e600" />
<rect x="350" y="700" width="50" height="50" style=" fill:#00e700" />
<rect x="400" y="700" width="50" height="50" style=" fill:#00e800" />
<rect x="450" y="700" width="50" height="50" style=" fill:#00e900" />
<rect x="500" y="700" width="50" height="50" style=" fill:#00ea00" />
<rect x="550" y="700" width="50" height="50" style=" fill:#00eb00" />
<rect x="600" y="700" width="50" height="50" style=" fill:#00ec00" />
<rect x="650" y="700" width="50" height="50" style=" fill:#00ed00" />
<rect x="700" y="700" width="50" height="50" style=" fill:#00ee00" />
<rect x="750" y="700" width="50" height="50" style=" fill:#00ef00" />
<rect x="0" y="750" width="50" height="50" style=" fill:#00f000" />
<rect x="50" y="750" width="50" height="50" style=" fill:#00f100" />
<rect x="100" y="750" width="50" height="50" style=" fill:#00f200" />
<rect x="150" y="750" width="50" height="50" style=" fill:#00f300" />
<rect x="200" y="750" width="50" height="50" style=" fill:#00f400" />
<rect x="250" y="750" width="50" height="50" style=" fill:#00f500" />
<rect x="300" y="750" width="50" height="50" style=" fill:#00f600" />
<rect x="350" y="750" width="50" height="50" style=" fill:#00f700" />
<rect x="400" y="750" width="50" height="50" style=" fill:#00f800" />
<rect x="450" y="750" width="50" height="50" style=" fill:#00f900" />
<rect x="500" y="750" width="50" height="50" style=" fill:#00fa00" />
<rect x="550" y="750" width="50" height="50" style=" fill:#00fb00" />
<rect x="600" y="750" width="50" height="50" style=" fill:#00fc00" />
<rect x="650" y="750" width="50" height="50" style=" fill:#00fd00" />
<rect x="700" y="750" width="50" height="50" style=" fill:#00fe00" />
<rect x="750" y="750" width="50" height="50" style=" fill:#00ff00" />
</svg>
