<?xml version="1.0" encoding="utf-8"?>
<!DOCTYPE svg PUBLIC "-//W3C//DTD SVG 1.1//EN"
  "http://www.w3.org/Graphics/SVG/1.1/DTD/svg11.dtd">
<svg version="1.1" width="800px" height="800px"
  viewBox="0 0 800 800"
  preserveAspectRatio="xMidYMid"
  fill-rule="evenodd"
  xmlns="http://www.w3.org/2000/svg"
  xmlns:xlink="http://www.w3.org/1999/xlink">
<rect x="0" y="0" width="800" height="800" style=" fill:#000000" />
<rect x="0" y="0" width="50" height="50" style=" fill:#000000" />
<rect x="50" y="0" width="50" height="50" style=" fill:#000001" />
<rect x="100" y="0" width="50" height="50" style=" fill:#000002" />
<rect x="150" y="0" width="50" height="50" style=" fill:#000003" />
<rect x="200" y="0" width="50" height="50" style=" fill:#000004" />
<rect x="250" y="0" width="50" height="50" style=" fill:#000005" />
<rect x="300" y="0" width="50" height="50" style=" fill:#000006" />
<rect x="350" y="0" width="50" height="50" style=" fill:#000007" />
<rect x="400" y="0" width="50" height="50" style=" fill:#000008" />
<rect x="450" y="0" width="50" height="50" style=" fill:#000009" />
<rect x="500" y="0" width="50" height="50" style=" fill:#00000a" />
<rect x="550" y="0" width="50" height="50" style=" fill:#00000b" />
<rect x="600" y="0" width="50" height="50" style=" fill:#00000c" />
<rect x="650" y="0" width="50" height="50" style=" fill:#00000d" />
<rect x="700" y="0" width="50" height="50" style=" fill:#00000e" />
<rect x="750" y="0" width="50" height="50" style=" fill:#00000f" />
<rect x="0" y="50" width="50" height="50" style=" fill:#000010" />
<rect x="50" y="50" width="50" height="50" style=" fill:#000011" />
<rect x="100" y="50" width="50" height="50" style=" fill:#000012" />
<rect x="150" y="50" width="50" height="50" style=" fill:#000013" />
<rect x="200" y="50" width="50" height="50" style=" fill:#000014" />
<rect x="250" y="50" width="50" height="50" style=" fill:#000015" />
<rect x="300" y="50" width="50" height="50" style=" fill:#000016" />
<rect x="350" y="50" width="50" height="50" style=" fill:#000017" />
<rect x="400" y="50" width="50" height="50" style=" fill:#000018" />
<rect x="450" y="50" width="50" height="50" style=" fill:#000019" />
<rect x="500" y="50" width="50" height="50" style=" fill:#00001a" />
<rect x="550" y="50" width="50" height="50" style=" fill:#00001b" />
<rect x="600" y="50" width="50" height="50" style=" fill:#00001c" />
<rect x="650" y="50" width="50" height="50" style=" fill:#00001d" />
<rect x="700" y="50" width="50" height="50" style=" fill:#00001e" />
<rect x="750" y="50" width="50" height="50" style=" fill:#00001f" />
<rect x="0" y="100" width="50" height="50" style=" fill:#000020" />
<rect x="50" y="100" width="50" height="50" style=" fill:#000021" />
<rect x="100" y="100" width="50" height="50" style=" fill:#000022" />
<rect x="150" y="100" width="50" height="50" style=" fill:#000023" />
<rect x="200" y="100" width="50" height="50" style=" fill:#000024" />
<rect x="250" y="100" width="50" height="50" style=" fill:#000025" />
<rect x="300" y="100" width="50" height="50" style=" fill:#000026" />
<rect x="350" y="100" width="50" height="50" style=" fill:#000027" />
<rect x="400" y="100" width="50" height="50" style=" fill:#000028" />
<rect x="450" y="100" width="50" height="50" style=" fill:#000029" />
<rect x="500" y="100" width="50" height="50" style=" fill:#00002a" />
<rect x="550" y="100" width="50" height="50" style=" fill:#00002b" />
<rect x="600" y="100" width="50" height="50" style=" fill:#00002c" />
<rect x="650" y="100" width="50" height="50" style=" fill:#00002d" />
<rect x="700" y="100" width="50" height="50" style=" fill:#00002e" />
<rect x="750" y="100" width="50" height="50" style=" fill:#00002f" />
<rect x="0" y="150" width="50" height="50" style=" fill:#000030" />
<rect x="50" y="150" width="50" height="50" style=" fill:#000031" />
<rect x="100" y="150" width="50" height="50" style=" fill:#000032" />
<rect x="150" y="150" width="50" height="50" style=" fill:#000033" />
<rect x="200" y="150" width="50" height="50" style=" fill:#000034" />
<rect x="250" y="150" width="50" height="50" style=" fill:#000035" />
<rect x="300" y="150" width="50" height="50" style=" fill:#000036" />
<rect x="350" y="150" width="50" height="50" style=" fill:#000037" />
<rect x="400" y="150" width="50" height="50" style=" fill:#000038" />
<rect x="450" y="150" width="50" height="50" style=" fill:#000039" />
<rect x="500" y="150" width="50" height="50" style=" fill:#00003a" />
<rect x="550" y="150" width="50" height="50" style=" fill:#00003b" />
<rect x="600" y="150" width="50" height="50" style=" fill:#00003c" />
<rect x="650" y="150" width="50" height="50" style=" fill:#00003d" />
<rect x="700" y="150" width="50" height="50" style=" fill:#00003e" />
<rect x="750" y="150" width="50" height="50" style=" fill:#00003f" />
<rect x="0" y="200" width="50" height="50" style=" fill:#000040" />
<rect x="50" y="200" width="50" height="50" style=" fill:#000041" />
<rect x="100" y="200" width="50" height="50" style=" fill:#000042" />
<rect x="150" y="200" width="50" height="50" style=" fill:#000043" />
<rect x="200" y="200" width="50" height="50" style=" fill:#000044" />
<rect x="250" y="200" width="50" height="50" style=" fill:#000045" />
<rect x="300" y="200" width="50" height="50" style=" fill:#000046" />
<rect x="350" y="200" width="50" height="50" style=" fill:#000047" />
<rect x="400" y="200" width="50" height="50" style=" fill:#000048" />
<rect x="450" y="200" width="50" height="50" style=" fill:#000049" />
<rect x="500" y="200" width="50" height="50" style=" fill:#00004a" />
<rect x="550" y="200" width="50" height="50" style=" fill:#00004b" />
<rect x="600" y="200" width="50" height="50" style=" fill:#00004c" />
<rect x="650" y="200" width="50" height="50" style=" fill:#00004d" />
<rect x="700" y="200" width="50" height="50" style=" fill:#00004e" />
<rect x="750" y="200" width="50" height="50" style=" fill:#00004f" />
<rect x="0" y="250" width="50" height="50" style=" fill:#000050" />
<rect x="50" y="250" width="50" height="50" style=" fill:#000051" />
<rect x="100" y="250" width="50" height="50" style=" fill:#000052" />
<rect x="150" y="250" width="50" height="50" style=" fill:#000053" />
<rect x="200" y="250" width="50" height="50" style=" fill:#000054" />
<rect x="250" y="250" width="50" height="50" style=" fill:#000055" />
<rect x="300" y="250" width="50" height="50" style=" fill:#000056" />
<rect x="350" y="250" width="50" height="50" style=" fill:#000057" />
<rect x="400" y="250" width="50" height="50" style=" fill:#000058" />
<rect x="450" y="250" width="50" height="50" style=" fill:#000059" />
<rect x="500" y="250" width="50" height="50" style=" fill:#00005a" />
<rect x="550" y="250" width="50" height="50" style=" fill:#00005b" />
<rect x="600" y="250" width="50" height="50" style=" fill:#00005c" />
<rect x="650" y="250" width="50" height="50" style=" fill:#00005d" />
<rect x="700" y="250" width="50" height="50" style=" fill:#00005e" />
<rect x="750" y="250" width="50" height="50" style=" fill:#00005f" />
<rect x="0" y="300" width="50" height="50" style=" fill:#000060" />
<rect x="50" y="300" width="50" height="50" style=" fill:#000061" />
<rect x="100" y="300" width="50" height="50" style=" fill:#000062" />
<rect x="150" y="300" width="50" height="50" style=" fill:#000063" />
<rect x="200" y="300" width="50" height="50" style=" fill:#000064" />
<rect x="250" y="300" width="50" height="50" style=" fill:#000065" />
<rect x="300" y="300" width="50" height="50" style=" fill:#000066" />
<rect x="350" y="300" width="50" height="50" style=" fill:#000067" />
<rect x="400" y="300" width="50" height="50" style=" fill:#000068" />
<rect x="450" y="300" width="50" height="50" style=" fill:#000069" />
<rect x="500" y="300" width="50" height="50" style=" fill:#00006a" />
<rect x="550" y="300" width="50" height="50" style=" fill:#00006b" />
<rect x="600" y="300" width="50" height="50" style=" fill:#00006c" />
<rect x="650" y="300" width="50" height="50" style=" fill:#00006d" />
<rect x="700" y="300" width="50" height="50" style=" fill:#00006e" />
<rect x="750" y="300" width="50" height="50" style=" fill:#00006f" />
<rect x="0" y="350" width="50" height="50" style=" fill:#000070" />
<rect x="50" y="350" width="50" height="50" style=" fill:#000071" />
<rect x="100" y="350" width="50" height="50" style=" fill:#000072" />
<rect x="150" y="350" width="50" height="50" style=" fill:#000073" />
<rect x="200" y="350" width="50" height="50" style=" fill:#000074" />
<rect x="250" y="350" width="50" height="50" style=" fill:#000075" />
<rect x="300" y="350" width="50" height="50" style=" fill:#000076" />
<rect x="350" y="350" width="50" height="50" style=" fill:#000077" />
<rect x="400" y="350" width="50" height="50" style=" fill:#000078" />
<rect x="450" y="350" width="50" height="50" style=" fill:#000079" />
<rect x="500" y="350" width="50" height="50" style=" fill:#00007a" />
<rect x="550" y="350" width="50" height="50" style=" fill:#00007b" />
<rect x="600" y="350" width="50" height="50" style=" fill:#00007c" />
<rect x="650" y="350" width="50" height="50" style=" fill:#00007d" />
<rect x="700" y="350" width="50" height="50" style=" fill:#00007e" />
<rect x="750" y="350" width="50" height="50" style=" fill:#00007f" />
<rect x="0" y="400" width="50" height="50" style=" fill:#000080" />
<rect x="50" y="400" width="50" height="50" style=" fill:#000081" />
<rect x="100" y="400" width="50" height="50" style=" fill:#000082" />
<rect x="150" y="400" width="50" height="50" style=" fill:#000083" />
<rect x="200" y="400" width="50" height="50" style=" fill:#000084" />
<rect x="250" y="400" width="50" height="50" style=" fill:#000085" />
<rect x="300" y="400" width="50" height="50" style=" fill:#000086" />
<rect x="350" y="400" width="50" height="50" style=" fill:#000087" />
<rect x="400" y="400" width="50" height="50" style=" fill:#000088" />
<rect x="450" y="400" width="50" height="50" style=" fill:#000089" />
<rect x="500" y="400" width="50" height="50" style=" fill:#00008a" />
<rect x="550" y="400" width="50" height="50" style=" fill:#00008b" />
<rect x="600" y="400" width="50" height="50" style=" fill:#00008c" />
<rect x="650" y="400" width="50" height="50" style=" fill:#00008d" />
<rect x="700" y="400" width="50" height="50" style=" fill:#00008e" />
<rect x="750" y="400" width="50" height="50" style=" fill:#00008f" />
<rect x="0" y="450" width="50" height="50" style=" fill:#000090" />
<rect x="50" y="450" width="50" height="50" style=" fill:#000091" />
<rect x="100" y="450" width="50" height="50" style=" fill:#000092" />
<rect x="150" y="450" width="50" height="50" style=" fill:#000093" />
<rect x="200" y="450" width="50" height="50" style=" fill:#000094" />
<rect x="250" y="450" width="50" height="50" style=" fill:#000095" />
<rect x="300" y="450" width="50" height="50" style=" fill:#000096" />
<rect x="350" y="450" width="50" height="50" style=" fill:#000097" />
<rect x="400" y="450" width="50" height="50" style=" fill:#000098" />
<rect x="450" y="450" width="50" height="50" style=" fill:#000099" />
<rect x="500" y="450" width="50" height="50" style=" fill:#00009a" />
<rect x="550" y="450" width="50" height="50" style=" fill:#00009b" />
<rect x="600" y="450" width="50" height="50" style=" fill:#00009c" />
<rect x="650" y="450" width="50" height="50" style=" fill:#00009d" />
<rect x="700" y="450" width="50" height="50" style=" fill:#00009e" />
<rect x="750" y="450" width="50" height="50" style=" fill:#00009f" />
<rect x="0" y="500" width="50" height="50" style=" fill:#0000a0" />
<rect x="50" y="500" width="50" height="50" style=" fill:#0000a1" />
<rect x="100" y="500" width="50" height="50" style=" fill:#0000a2" />
<rect x="150" y="500" width="50" height="50" style=" fill:#0000a3" />
<rect x="200" y="500" width="50" height="50" style=" fill:#0000a4" />
<rect x="250" y="500" width="50" height="50" style=" fill:#0000a5" />
<rect x="300" y="500" width="50" height="50" style=" fill:#0000a6" />
<rect x="350" y="500" width="50" height="50" style=" fill:#0000a7" />
<rect x="400" y="500" width="50" height="50" style=" fill:#0000a8" />
<rect x="450" y="500" width="50" height="50" style=" fill:#0000a9" />
<rect x="500" y="500" width="50" height="50" style=" fill:#0000aa" />
<rect x="550" y="500" width="50" height="50" style=" fill:#0000ab" />
<rect x="600" y="500" width="50" height="50" style=" fill:#0000ac" />
<rect x="650" y="500" width="50" height="50" style=" fill:#0000ad" />
<rect x="700" y="500" width="50" height="50" style=" fill:#0000ae" />
<rect x="750" y="500" width="50" height="50" style=" fill:#0000af" />
<rect x="0" y="550" width="50" height="50" style=" fill:#0000b0" />
<rect x="50" y="550" width="50" height="50" style=" fill:#0000b1" />
<rect x="100" y="550" width="50" height="50" style=" fill:#0000b2" />
<rect x="150" y="550" width="50" height="50" style=" fill:#0000b3" />
<rect x="200" y="550" width="50" height="50" style=" fill:#0000b4" />
<rect x="250" y="550" width="50" height="50" style=" fill:#0000b5" />
<rect x="300" y="550" width="50" height="50" style=" fill:#0000b6" />
<rect x="350" y="550" width="50" height="50" style=" fill:#0000b7" />
<rect x="400" y="550" width="50" height="50" style=" fill:#0000b8" />
<rect x="450" y="550" width="50" height="50" style=" fill:#0000b9" />
<rect x="500" y="550" width="50" height="50" style=" fill:#0000ba" />
<rect x="550" y="550" width="50" height="50" style=" fill:#0000bb" />
<rect x="600" y="550" width="50" height="50" style=" fill:#0000bc" />
<rect x="650" y="550" width="50" height="50" style=" fill:#0000bd" />
<rect x="700" y="550" width="50" height="50" style=" fill:#0000be" />
<rect x="750" y="550" width="50" height="50" style=" fill:#0000bf" />
<rect x="0" y="600" width="50" height="50" style=" fill:#0000c0" />
<rect x="50" y="600" width="50" height="50" style=" fill:#0000c1" />
<rect x="100" y="600" width="50" height="50" style=" fill:#0000c2" />
<rect x="150" y="600" width="50" height="50" style=" fill:#0000c3" />
<rect x="200" y="600" width="50" height="50" style=" fill:#0000c4" />
<rect x="250" y="600" width="50" height="50" style=" fill:#0000c5" />
<rect x="300" y="600" width="50" height="50" style=" fill:#0000c6" />
<rect x="350" y="600" width="50" height="50" style=" fill:#0000c7" />
<rect x="400" y="600" width="50" height="50" style=" fill:#0000c8" />
<rect x="450" y="600" width="50" height="50" style=" fill:#0000c9" />
<rect x="500" y="600" width="50" height="50" style=" fill:#0000ca" />
<rect x="550" y="600" width="50" height="50" style=" fill:#0000cb" />
<rect x="600" y="600" width="50" height="50" style=" fill:#0000cc" />
<rect x="650" y="600" width="50" height="50" style=" fill:#0000cd" />
<rect x="700" y="600" width="50" height="50" style=" fill:#0000ce" />
<rect x="750" y="600" width="50" height="50" style=" fill:#0000cf" />
<rect x="0" y="650" width="50" height="50" style=" fill:#0000d0" />
<rect x="50" y="650" width="50" height="50" style=" fill:#0000d1" />
<rect x="100" y="650" width="50" height="50" style=" fill:#0000d2" />
<rect x="150" y="650" width="50" height="50" style=" fill:#0000d3" />
<rect x="200" y="650" width="50" height="50" style=" fill:#0000d4" />
<rect x="250" y="650" width="50" height="50" style=" fill:#0000d5" />
<rect x="300" y="650" width="50" height="50" style=" fill:#0000d6" />
<rect x="350" y="650" width="50" height="50" style=" fill:#0000d7" />
<rect x="400" y="650" width="50" height="50" style=" fill:#0000d8" />
<rect x="450" y="650" width="50" height="50" style=" fill:#0000d9" />
<rect x="500" y="650" width="50" height="50" style=" fill:#0000da" />
<rect x="550" y="650" width="50" height="50" style=" fill:#0000db" />
<rect x="600" y="650" width="50" height="50" style=" fill:#0000dc" />
<rect x="650" y="650" width="50" height="50" style=" fill:#0000dd" />
<rect x="700" y="650" width="50" height="50" style=" fill:#0000de" />
<rect x="750" y="650" width="50" height="50" style=" fill:#0000df" />
<rect x="0" y="700" width="50" height="50" style=" fill:#0000e0" />
<rect x="50" y="700" width="50" height="50" style=" fill:#0000e1" />
<rect x="100" y="700" width="50" height="50" style=" fill:#0000e2" />
<rect x="150" y="700" width="50" height="50" style=" fill:#0000e3" />
<rect x="200" y="700" width="50" height="50" style=" fill:#0000e4" />
<rect x="250" y="700" width="50" height="50" style=" fill:#0000e5" />
<rect x="300" y="700" width="50" height="50" style=" fill:#0000e6" />
<rect x="350" y="700" width="50" height="50" style=" fill:#0000e7" />
<rect x="400" y="700" width="50" height="50" style=" fill:#0000e8" />
<rect x="450" y="700" width="50" height="50" style=" fill:#0000e9" />
<rect x="500" y="700" width="50" height="50" style=" fill:#0000ea" />
<rect x="550" y="700" width="50" height="50" style=" fill:#0000eb" />
<rect x="600" y="700" width="50" height="50" style=" fill:#0000ec" />
<rect x="650" y="700" width="50" height="50" style=" fill:#0000ed" />
<rect x="700" y="700" width="50" height="50" style=" fill:#0000ee" />
<rect x="750" y="700" width="50" height="50" style=" fill:#0000ef" />
<rect x="0" y="750" width="50" height="50" style=" fill:#0000f0" />
<rect x="50" y="750" width="50" height="50" style=" fill:#0000f1" />
<rect x="100" y="750" width="50" height="50" style=" fill:#0000f2" />
<rect x="150" y="750" width="50" height="50" style=" fill:#0000f3" />
<rect x="200" y="750" width="50" height="50" style=" fill:#0000f4" />
<rect x="250" y="750" width="50" height="50" style=" fill:#0000f5" />
<rect x="300" y="750" width="50" height="50" style=" fill:#0000f6" />
<rect x="350" y="750" width="50" height="50" style=" fill:#0000f7" />
<rect x="400" y="750" width="50" height="50" style=" fill:#0000f8" />
<rect x="450" y="750" width="50" height="50" style=" fill:#0000f9" />
<rect x="500" y="750" width="50" height="50" style=" fill:#0000fa" />
<rect x="550" y="750" width="50" height="50" style=" fill:#0000fb" />
<rect x="600" y="750" width="50" height="50" style=" fill:#0000fc" />
<rect x="650" y="750" width="50" height="50" style=" fill:#0000fd" />
<rect x="700" y="750" width="50" height="50" style=" fill:#0000fe" />
<rect x="750" y="750" width="50" height="50" style=" fill:#0000ff" />
</svg>
