<?xml version="1.0" encoding="utf-8"?>
<!DOCTYPE svg PUBLIC "-//W3C//DTD SVG 1.1//EN"
  "http://www.w3.org/Graphics/SVG/1.1/DTD/svg11.dtd">
<svg version="1.1" width="1920px" height="1080px"
  viewBox="0 0 1920 1080"
  preserveAspectRatio="xMidYMid"
  fill-rule="evenodd"
  xmlns="http://www.w3.org/2000/svg"
  xmlns:xlink="http://www.w3.org/1999/xlink">
<rect x="0" y="0" width="1920" height="1080" style=" fill:#000000" />
<rect x="0" y="0" width="64" height="1080" style=" fill:#ffffff" />
<rect x="64" y="0" width="7" height="1080" style=" fill:#000000" />
<rect x="71" y="0" width="7" height="1080" style=" fill:#010000" />
<rect x="78" y="0" width="7" height="1080" style=" fill:#020000" />
<rect x="85" y="0" width="7" height="1080" style=" fill:#030000" />
<rect x="92" y="0" width="7" height="1080" style=" fill:#040000" />
<rect x="99" y="0" width="7" height="1080" style=" fill:#050000" />
<rect x="106" y="0" width="7" height="1080" style=" fill:#060000" />
<rect x="113" y="0" width="7" height="1080" style=" fill:#070000" />
<rect x="120" y="0" width="7" height="1080" style=" fill:#080000" />
<rect x="127" y="0" width="7" height="1080" style=" fill:#090000" />
<rect x="134" y="0" width="7" height="1080" style=" fill:#0a0000" />
<rect x="141" y="0" width="7" height="1080" style=" fill:#0b0000" />
<rect x="148" y="0" width="7" height="1080" style=" fill:#0c0000" />
<rect x="155" y="0" width="7" height="1080" style=" fill:#0d0000" />
<rect x="162" y="0" width="7" height="1080" style=" fill:#0e0000" />
<rect x="169" y="0" width="7" height="1080" style=" fill:#0f0000" />
<rect x="176" y="0" width="7" height="1080" style=" fill:#100000" />
<rect x="183" y="0" width="7" height="1080" style=" fill:#110000" />
<rect x="190" y="0" width="7" height="1080" style=" fill:#120000" />
<rect x="197" y="0" width="7" height="1080" style=" fill:#130000" />
<rect x="204" y="0" width="7" height="1080" style=" fill:#140000" />
<rect x="211" y="0" width="7" height="1080" style=" fill:#150000" />
<rect x="218" y="0" width="7" height="1080" style=" fill:#160000" />
<rect x="225" y="0" width="7" height="1080" style=" fill:#170000" />
<rect x="232" y="0" width="7" height="1080" style=" fill:#180000" />
<rect x="239" y="0" width="7" height="1080" style=" fill:#190000" />
<rect x="246" y="0" width="7" height="1080" style=" fill:#1a0000" />
<rect x="253" y="0" width="7" height="1080" style=" fill:#1b0000" />
<rect x="260" y="0" width="7" height="1080" style=" fill:#1c0000" />
<rect x="267" y="0" width="7" height="1080" style=" fill:#1d0000" />
<rect x="274" y="0" width="7" height="1080" style=" fill:#1e0000" />
<rect x="281" y="0" width="7" height="1080" style=" fill:#1f0000" />
<rect x="288" y="0" width="7" height="1080" style=" fill:#200000" />
<rect x="295" y="0" width="7" height="1080" style=" fill:#210000" />
<rect x="302" y="0" width="7" height="1080" style=" fill:#220000" />
<rect x="309" y="0" width="7" height="1080" style=" fill:#230000" />
<rect x="316" y="0" width="7" height="1080" style=" fill:#240000" />
<rect x="323" y="0" width="7" height="1080" style=" fill:#250000" />
<rect x="330" y="0" width="7" height="1080" style=" fill:#260000" />
<rect x="337" y="0" width="7" height="1080" style=" fill:#270000" />
<rect x="344" y="0" width="7" height="1080" style=" fill:#280000" />
<rect x="351" y="0" width="7" height="1080" style=" fill:#290000" />
<rect x="358" y="0" width="7" height="1080" style=" fill:#2a0000" />
<rect x="365" y="0" width="7" height="1080" style=" fill:#2b0000" />
<rect x="372" y="0" width="7" height="1080" style=" fill:#2c0000" />
<rect x="379" y="0" width="7" height="1080" style=" fill:#2d0000" />
<rect x="386" y="0" width="7" height="1080" style=" fill:#2e0000" />
<rect x="393" y="0" width="7" height="1080" style=" fill:#2f0000" />
<rect x="400" y="0" width="7" height="1080" style=" fill:#300000" />
<rect x="407" y="0" width="7" height="1080" style=" fill:#310000" />
<rect x="414" y="0" width="7" height="1080" style=" fill:#320000" />
<rect x="421" y="0" width="7" height="1080" style=" fill:#330000" />
<rect x="428" y="0" width="7" height="1080" style=" fill:#340000" />
<rect x="435" y="0" width="7" height="1080" style=" fill:#350000" />
<rect x="442" y="0" width="7" height="1080" style=" fill:#360000" />
<rect x="449" y="0" width="7" height="1080" style=" fill:#370000" />
<rect x="456" y="0" width="7" height="1080" style=" fill:#380000" />
<rect x="463" y="0" width="7" height="1080" style=" fill:#390000" />
<rect x="470" y="0" width="7" height="1080" style=" fill:#3a0000" />
<rect x="477" y="0" width="7" height="1080" style=" fill:#3b0000" />
<rect x="484" y="0" width="7" height="1080" style=" fill:#3c0000" />
<rect x="491" y="0" width="7" height="1080" style=" fill:#3d0000" />
<rect x="498" y="0" width="7" height="1080" style=" fill:#3e0000" />
<rect x="505" y="0" width="7" height="1080" style=" fill:#3f0000" />
<rect x="512" y="0" width="7" height="1080" style=" fill:#400000" />
<rect x="519" y="0" width="7" height="1080" style=" fill:#410000" />
<rect x="526" y="0" width="7" height="1080" style=" fill:#420000" />
<rect x="533" y="0" width="7" height="1080" style=" fill:#430000" />
<rect x="540" y="0" width="7" height="1080" style=" fill:#440000" />
<rect x="547" y="0" width="7" height="1080" style=" fill:#450000" />
<rect x="554" y="0" width="7" height="1080" style=" fill:#460000" />
<rect x="561" y="0" width="7" height="1080" style=" fill:#470000" />
<rect x="568" y="0" width="7" height="1080" style=" fill:#480000" />
<rect x="575" y="0" width="7" height="1080" style=" fill:#490000" />
<rect x="582" y="0" width="7" height="1080" style=" fill:#4a0000" />
<rect x="589" y="0" width="7" height="1080" style=" fill:#4b0000" />
<rect x="596" y="0" width="7" height="1080" style=" fill:#4c0000" />
<rect x="603" y="0" width="7" height="1080" style=" fill:#4d0000" />
<rect x="610" y="0" width="7" height="1080" style=" fill:#4e0000" />
<rect x="617" y="0" width="7" height="1080" style=" fill:#4f0000" />
<rect x="624" y="0" width="7" height="1080" style=" fill:#500000" />
<rect x="631" y="0" width="7" height="1080" style=" fill:#510000" />
<rect x="638" y="0" width="7" height="1080" style=" fill:#520000" />
<rect x="645" y="0" width="7" height="1080" style=" fill:#530000" />
<rect x="652" y="0" width="7" height="1080" style=" fill:#540000" />
<rect x="659" y="0" width="7" height="1080" style=" fill:#550000" />
<rect x="666" y="0" width="7" height="1080" style=" fill:#560000" />
<rect x="673" y="0" width="7" height="1080" style=" fill:#570000" />
<rect x="680" y="0" width="7" height="1080" style=" fill:#580000" />
<rect x="687" y="0" width="7" height="1080" style=" fill:#590000" />
<rect x="694" y="0" width="7" height="1080" style=" fill:#5a0000" />
<rect x="701" y="0" width="7" height="1080" style=" fill:#5b0000" />
<rect x="708" y="0" width="7" height="1080" style=" fill:#5c0000" />
<rect x="715" y="0" width="7" height="1080" style=" fill:#5d0000" />
<rect x="722" y="0" width="7" height="1080" style=" fill:#5e0000" />
<rect x="729" y="0" width="7" height="1080" style=" fill:#5f0000" />
<rect x="736" y="0" width="7" height="1080" style=" fill:#600000" />
<rect x="743" y="0" width="7" height="1080" style=" fill:#610000" />
<rect x="750" y="0" width="7" height="1080" style=" fill:#620000" />
<rect x="757" y="0" width="7" height="1080" style=" fill:#630000" />
<rect x="764" y="0" width="7" height="1080" style=" fill:#640000" />
<rect x="771" y="0" width="7" height="1080" style=" fill:#650000" />
<rect x="778" y="0" width="7" height="1080" style=" fill:#660000" />
<rect x="785" y="0" width="7" height="1080" style=" fill:#670000" />
<rect x="792" y="0" width="7" height="1080" style=" fill:#680000" />
<rect x="799" y="0" width="7" height="1080" style=" fill:#690000" />
<rect x="806" y="0" width="7" height="1080" style=" fill:#6a0000" />
<rect x="813" y="0" width="7" height="1080" style=" fill:#6b0000" />
<rect x="820" y="0" width="7" height="1080" style=" fill:#6c0000" />
<rect x="827" y="0" width="7" height="1080" style=" fill:#6d0000" />
<rect x="834" y="0" width="7" height="1080" style=" fill:#6e0000" />
<rect x="841" y="0" width="7" height="1080" style=" fill:#6f0000" />
<rect x="848" y="0" width="7" height="1080" style=" fill:#700000" />
<rect x="855" y="0" width="7" height="1080" style=" fill:#710000" />
<rect x="862" y="0" width="7" height="1080" style=" fill:#720000" />
<rect x="869" y="0" width="7" height="1080" style=" fill:#730000" />
<rect x="876" y="0" width="7" height="1080" style=" fill:#740000" />
<rect x="883" y="0" width="7" height="1080" style=" fill:#750000" />
<rect x="890" y="0" width="7" height="1080" style=" fill:#760000" />
<rect x="897" y="0" width="7" height="1080" style=" fill:#770000" />
<rect x="904" y="0" width="7" height="1080" style=" fill:#780000" />
<rect x="911" y="0" width="7" height="1080" style=" fill:#790000" />
<rect x="918" y="0" width="7" height="1080" style=" fill:#7a0000" />
<rect x="925" y="0" width="7" height="1080" style=" fill:#7b0000" />
<rect x="932" y="0" width="7" height="1080" style=" fill:#7c0000" />
<rect x="939" y="0" width="7" height="1080" style=" fill:#7d0000" />
<rect x="946" y="0" width="7" height="1080" style=" fill:#7e0000" />
<rect x="953" y="0" width="7" height="1080" style=" fill:#7f0000" />
<rect x="960" y="0" width="7" height="1080" style=" fill:#800000" />
<rect x="967" y="0" width="7" height="1080" style=" fill:#810000" />
<rect x="974" y="0" width="7" height="1080" style=" fill:#820000" />
<rect x="981" y="0" width="7" height="1080" style=" fill:#830000" />
<rect x="988" y="0" width="7" height="1080" style=" fill:#840000" />
<rect x="995" y="0" width="7" height="1080" style=" fill:#850000" />
<rect x="1002" y="0" width="7" height="1080" style=" fill:#860000" />
<rect x="1009" y="0" width="7" height="1080" style=" fill:#870000" />
<rect x="1016" y="0" width="7" height="1080" style=" fill:#880000" />
<rect x="1023" y="0" width="7" height="1080" style=" fill:#890000" />
<rect x="1030" y="0" width="7" height="1080" style=" fill:#8a0000" />
<rect x="1037" y="0" width="7" height="1080" style=" fill:#8b0000" />
<rect x="1044" y="0" width="7" height="1080" style=" fill:#8c0000" />
<rect x="1051" y="0" width="7" height="1080" style=" fill:#8d0000" />
<rect x="1058" y="0" width="7" height="1080" style=" fill:#8e0000" />
<rect x="1065" y="0" width="7" height="1080" style=" fill:#8f0000" />
<rect x="1072" y="0" width="7" height="1080" style=" fill:#900000" />
<rect x="1079" y="0" width="7" height="1080" style=" fill:#910000" />
<rect x="1086" y="0" width="7" height="1080" style=" fill:#920000" />
<rect x="1093" y="0" width="7" height="1080" style=" fill:#930000" />
<rect x="1100" y="0" width="7" height="1080" style=" fill:#940000" />
<rect x="1107" y="0" width="7" height="1080" style=" fill:#950000" />
<rect x="1114" y="0" width="7" height="1080" style=" fill:#960000" />
<rect x="1121" y="0" width="7" height="1080" style=" fill:#970000" />
<rect x="1128" y="0" width="7" height="1080" style=" fill:#980000" />
<rect x="1135" y="0" width="7" height="1080" style=" fill:#990000" />
<rect x="1142" y="0" width="7" height="1080" style=" fill:#9a0000" />
<rect x="1149" y="0" width="7" height="1080" style=" fill:#9b0000" />
<rect x="1156" y="0" width="7" height="1080" style=" fill:#9c0000" />
<rect x="1163" y="0" width="7" height="1080" style=" fill:#9d0000" />
<rect x="1170" y="0" width="7" height="1080" style=" fill:#9e0000" />
<rect x="1177" y="0" width="7" height="1080" style=" fill:#9f0000" />
<rect x="1184" y="0" width="7" height="1080" style=" fill:#a00000" />
<rect x="1191" y="0" width="7" height="1080" style=" fill:#a10000" />
<rect x="1198" y="0" width="7" height="1080" style=" fill:#a20000" />
<rect x="1205" y="0" width="7" height="1080" style=" fill:#a30000" />
<rect x="1212" y="0" width="7" height="1080" style=" fill:#a40000" />
<rect x="1219" y="0" width="7" height="1080" style=" fill:#a50000" />
<rect x="1226" y="0" width="7" height="1080" style=" fill:#a60000" />
<rect x="1233" y="0" width="7" height="1080" style=" fill:#a70000" />
<rect x="1240" y="0" width="7" height="1080" style=" fill:#a80000" />
<rect x="1247" y="0" width="7" height="1080" style=" fill:#a90000" />
<rect x="1254" y="0" width="7" height="1080" style=" fill:#aa0000" />
<rect x="1261" y="0" width="7" height="1080" style=" fill:#ab0000" />
<rect x="1268" y="0" width="7" height="1080" style=" fill:#ac0000" />
<rect x="1275" y="0" width="7" height="1080" style=" fill:#ad0000" />
<rect x="1282" y="0" width="7" height="1080" style=" fill:#ae0000" />
<rect x="1289" y="0" width="7" height="1080" style=" fill:#af0000" />
<rect x="1296" y="0" width="7" height="1080" style=" fill:#b00000" />
<rect x="1303" y="0" width="7" height="1080" style=" fill:#b10000" />
<rect x="1310" y="0" width="7" height="1080" style=" fill:#b20000" />
<rect x="1317" y="0" width="7" height="1080" style=" fill:#b30000" />
<rect x="1324" y="0" width="7" height="1080" style=" fill:#b40000" />
<rect x="1331" y="0" width="7" height="1080" style=" fill:#b50000" />
<rect x="1338" y="0" width="7" height="1080" style=" fill:#b60000" />
<rect x="1345" y="0" width="7" height="1080" style=" fill:#b70000" />
<rect x="1352" y="0" width="7" height="1080" style=" fill:#b80000" />
<rect x="1359" y="0" width="7" height="1080" style=" fill:#b90000" />
<rect x="1366" y="0" width="7" height="1080" style=" fill:#ba0000" />
<rect x="1373" y="0" width="7" height="1080" style=" fill:#bb0000" />
<rect x="1380" y="0" width="7" height="1080" style=" fill:#bc0000" />
<rect x="1387" y="0" width="7" height="1080" style=" fill:#bd0000" />
<rect x="1394" y="0" width="7" height="1080" style=" fill:#be0000" />
<rect x="1401" y="0" width="7" height="1080" style=" fill:#bf0000" />
<rect x="1408" y="0" width="7" height="1080" style=" fill:#c00000" />
<rect x="1415" y="0" width="7" height="1080" style=" fill:#c10000" />
<rect x="1422" y="0" width="7" height="1080" style=" fill:#c20000" />
<rect x="1429" y="0" width="7" height="1080" style=" fill:#c30000" />
<rect x="1436" y="0" width="7" height="1080" style=" fill:#c40000" />
<rect x="1443" y="0" width="7" height="1080" style=" fill:#c50000" />
<rect x="1450" y="0" width="7" height="1080" style=" fill:#c60000" />
<rect x="1457" y="0" width="7" height="1080" style=" fill:#c70000" />
<rect x="1464" y="0" width="7" height="1080" style=" fill:#c80000" />
<rect x="1471" y="0" width="7" height="1080" style=" fill:#c90000" />
<rect x="1478" y="0" width="7" height="1080" style=" fill:#ca0000" />
<rect x="1485" y="0" width="7" height="1080" style=" fill:#cb0000" />
<rect x="1492" y="0" width="7" height="1080" style=" fill:#cc0000" />
<rect x="1499" y="0" width="7" height="1080" style=" fill:#cd0000" />
<rect x="1506" y="0" width="7" height="1080" style=" fill:#ce0000" />
<rect x="1513" y="0" width="7" height="1080" style=" fill:#cf0000" />
<rect x="1520" y="0" width="7" height="1080" style=" fill:#d00000" />
<rect x="1527" y="0" width="7" height="1080" style=" fill:#d10000" />
<rect x="1534" y="0" width="7" height="1080" style=" fill:#d20000" />
<rect x="1541" y="0" width="7" height="1080" style=" fill:#d30000" />
<rect x="1548" y="0" width="7" height="1080" style=" fill:#d40000" />
<rect x="1555" y="0" width="7" height="1080" style=" fill:#d50000" />
<rect x="1562" y="0" width="7" height="1080" style=" fill:#d60000" />
<rect x="1569" y="0" width="7" height="1080" style=" fill:#d70000" />
<rect x="1576" y="0" width="7" height="1080" style=" fill:#d80000" />
<rect x="1583" y="0" width="7" height="1080" style=" fill:#d90000" />
<rect x="1590" y="0" width="7" height="1080" style=" fill:#da0000" />
<rect x="1597" y="0" width="7" height="1080" style=" fill:#db0000" />
<rect x="1604" y="0" width="7" height="1080" style=" fill:#dc0000" />
<rect x="1611" y="0" width="7" height="1080" style=" fill:#dd0000" />
<rect x="1618" y="0" width="7" height="1080" style=" fill:#de0000" />
<rect x="1625" y="0" width="7" height="1080" style=" fill:#df0000" />
<rect x="1632" y="0" width="7" height="1080" style=" fill:#e00000" />
<rect x="1639" y="0" width="7" height="1080" style=" fill:#e10000" />
<rect x="1646" y="0" width="7" height="1080" style=" fill:#e20000" />
<rect x="1653" y="0" width="7" height="1080" style=" fill:#e30000" />
<rect x="1660" y="0" width="7" height="1080" style=" fill:#e40000" />
<rect x="1667" y="0" width="7" height="1080" style=" fill:#e50000" />
<rect x="1674" y="0" width="7" height="1080" style=" fill:#e60000" />
<rect x="1681" y="0" width="7" height="1080" style=" fill:#e70000" />
<rect x="1688" y="0" width="7" height="1080" style=" fill:#e80000" />
<rect x="1695" y="0" width="7" height="1080" style=" fill:#e90000" />
<rect x="1702" y="0" width="7" height="1080" style=" fill:#ea0000" />
<rect x="1709" y="0" width="7" height="1080" style=" fill:#eb0000" />
<rect x="1716" y="0" width="7" height="1080" style=" fill:#ec0000" />
<rect x="1723" y="0" width="7" height="1080" style=" fill:#ed0000" />
<rect x="1730" y="0" width="7" height="1080" style=" fill:#ee0000" />
<rect x="1737" y="0" width="7" height="1080" style=" fill:#ef0000" />
<rect x="1744" y="0" width="7" height="1080" style=" fill:#f00000" />
<rect x="1751" y="0" width="7" height="1080" style=" fill:#f10000" />
<rect x="1758" y="0" width="7" height="1080" style=" fill:#f20000" />
<rect x="1765" y="0" width="7" height="1080" style=" fill:#f30000" />
<rect x="1772" y="0" width="7" height="1080" style=" fill:#f40000" />
<rect x="1779" y="0" width="7" height="1080" style=" fill:#f50000" />
<rect x="1786" y="0" width="7" height="1080" style=" fill:#f60000" />
<rect x="1793" y="0" width="7" height="1080" style=" fill:#f70000" />
<rect x="1800" y="0" width="7" height="1080" style=" fill:#f80000" />
<rect x="1807" y="0" width="7" height="1080" style=" fill:#f90000" />
<rect x="1814" y="0" width="7" height="1080" style=" fill:#fa0000" />
<rect x="1821" y="0" width="7" height="1080" style=" fill:#fb0000" />
<rect x="1828" y="0" width="7" height="1080" style=" fill:#fc0000" />
<rect x="1835" y="0" width="7" height="1080" style=" fill:#fd0000" />
<rect x="1842" y="0" width="7" height="1080" style=" fill:#fe0000" />
<rect x="1849" y="0" width="7" height="1080" style=" fill:#ff0000" />
<rect x="1856" y="0" width="64" height="1080" style=" fill:#000000" />
</svg>
