<?xml version="1.0" encoding="utf-8"?>
<!DOCTYPE svg PUBLIC "-//W3C//DTD SVG 1.1//EN"
  "http://www.w3.org/Graphics/SVG/1.1/DTD/svg11.dtd">
<svg version="1.1" width="1920px" height="1080px"
  viewBox="0 0 1920 1080"
  preserveAspectRatio="xMidYMid"
  fill-rule="evenodd"
  xmlns="http://www.w3.org/2000/svg"
  xmlns:xlink="http://www.w3.org/1999/xlink">
<rect x="0" y="0" width="1920" height="1080" style=" fill:#000000" />
<rect x="0" y="0" width="64" height="1080" style=" fill:#ffffff" />
<rect x="64" y="0" width="7" height="1080" style=" fill:#000000" />
<rect x="71" y="0" width="7" height="1080" style=" fill:#000001" />
<rect x="78" y="0" width="7" height="1080" style=" fill:#000002" />
<rect x="85" y="0" width="7" height="1080" style=" fill:#000003" />
<rect x="92" y="0" width="7" height="1080" style=" fill:#000004" />
<rect x="99" y="0" width="7" height="1080" style=" fill:#000005" />
<rect x="106" y="0" width="7" height="1080" style=" fill:#000006" />
<rect x="113" y="0" width="7" height="1080" style=" fill:#000007" />
<rect x="120" y="0" width="7" height="1080" style=" fill:#000008" />
<rect x="127" y="0" width="7" height="1080" style=" fill:#000009" />
<rect x="134" y="0" width="7" height="1080" style=" fill:#00000a" />
<rect x="141" y="0" width="7" height="1080" style=" fill:#00000b" />
<rect x="148" y="0" width="7" height="1080" style=" fill:#00000c" />
<rect x="155" y="0" width="7" height="1080" style=" fill:#00000d" />
<rect x="162" y="0" width="7" height="1080" style=" fill:#00000e" />
<rect x="169" y="0" width="7" height="1080" style=" fill:#00000f" />
<rect x="176" y="0" width="7" height="1080" style=" fill:#000010" />
<rect x="183" y="0" width="7" height="1080" style=" fill:#000011" />
<rect x="190" y="0" width="7" height="1080" style=" fill:#000012" />
<rect x="197" y="0" width="7" height="1080" style=" fill:#000013" />
<rect x="204" y="0" width="7" height="1080" style=" fill:#000014" />
<rect x="211" y="0" width="7" height="1080" style=" fill:#000015" />
<rect x="218" y="0" width="7" height="1080" style=" fill:#000016" />
<rect x="225" y="0" width="7" height="1080" style=" fill:#000017" />
<rect x="232" y="0" width="7" height="1080" style=" fill:#000018" />
<rect x="239" y="0" width="7" height="1080" style=" fill:#000019" />
<rect x="246" y="0" width="7" height="1080" style=" fill:#00001a" />
<rect x="253" y="0" width="7" height="1080" style=" fill:#00001b" />
<rect x="260" y="0" width="7" height="1080" style=" fill:#00001c" />
<rect x="267" y="0" width="7" height="1080" style=" fill:#00001d" />
<rect x="274" y="0" width="7" height="1080" style=" fill:#00001e" />
<rect x="281" y="0" width="7" height="1080" style=" fill:#00001f" />
<rect x="288" y="0" width="7" height="1080" style=" fill:#000020" />
<rect x="295" y="0" width="7" height="1080" style=" fill:#000021" />
<rect x="302" y="0" width="7" height="1080" style=" fill:#000022" />
<rect x="309" y="0" width="7" height="1080" style=" fill:#000023" />
<rect x="316" y="0" width="7" height="1080" style=" fill:#000024" />
<rect x="323" y="0" width="7" height="1080" style=" fill:#000025" />
<rect x="330" y="0" width="7" height="1080" style=" fill:#000026" />
<rect x="337" y="0" width="7" height="1080" style=" fill:#000027" />
<rect x="344" y="0" width="7" height="1080" style=" fill:#000028" />
<rect x="351" y="0" width="7" height="1080" style=" fill:#000029" />
<rect x="358" y="0" width="7" height="1080" style=" fill:#00002a" />
<rect x="365" y="0" width="7" height="1080" style=" fill:#00002b" />
<rect x="372" y="0" width="7" height="1080" style=" fill:#00002c" />
<rect x="379" y="0" width="7" height="1080" style=" fill:#00002d" />
<rect x="386" y="0" width="7" height="1080" style=" fill:#00002e" />
<rect x="393" y="0" width="7" height="1080" style=" fill:#00002f" />
<rect x="400" y="0" width="7" height="1080" style=" fill:#000030" />
<rect x="407" y="0" width="7" height="1080" style=" fill:#000031" />
<rect x="414" y="0" width="7" height="1080" style=" fill:#000032" />
<rect x="421" y="0" width="7" height="1080" style=" fill:#000033" />
<rect x="428" y="0" width="7" height="1080" style=" fill:#000034" />
<rect x="435" y="0" width="7" height="1080" style=" fill:#000035" />
<rect x="442" y="0" width="7" height="1080" style=" fill:#000036" />
<rect x="449" y="0" width="7" height="1080" style=" fill:#000037" />
<rect x="456" y="0" width="7" height="1080" style=" fill:#000038" />
<rect x="463" y="0" width="7" height="1080" style=" fill:#000039" />
<rect x="470" y="0" width="7" height="1080" style=" fill:#00003a" />
<rect x="477" y="0" width="7" height="1080" style=" fill:#00003b" />
<rect x="484" y="0" width="7" height="1080" style=" fill:#00003c" />
<rect x="491" y="0" width="7" height="1080" style=" fill:#00003d" />
<rect x="498" y="0" width="7" height="1080" style=" fill:#00003e" />
<rect x="505" y="0" width="7" height="1080" style=" fill:#00003f" />
<rect x="512" y="0" width="7" height="1080" style=" fill:#000040" />
<rect x="519" y="0" width="7" height="1080" style=" fill:#000041" />
<rect x="526" y="0" width="7" height="1080" style=" fill:#000042" />
<rect x="533" y="0" width="7" height="1080" style=" fill:#000043" />
<rect x="540" y="0" width="7" height="1080" style=" fill:#000044" />
<rect x="547" y="0" width="7" height="1080" style=" fill:#000045" />
<rect x="554" y="0" width="7" height="1080" style=" fill:#000046" />
<rect x="561" y="0" width="7" height="1080" style=" fill:#000047" />
<rect x="568" y="0" width="7" height="1080" style=" fill:#000048" />
<rect x="575" y="0" width="7" height="1080" style=" fill:#000049" />
<rect x="582" y="0" width="7" height="1080" style=" fill:#00004a" />
<rect x="589" y="0" width="7" height="1080" style=" fill:#00004b" />
<rect x="596" y="0" width="7" height="1080" style=" fill:#00004c" />
<rect x="603" y="0" width="7" height="1080" style=" fill:#00004d" />
<rect x="610" y="0" width="7" height="1080" style=" fill:#00004e" />
<rect x="617" y="0" width="7" height="1080" style=" fill:#00004f" />
<rect x="624" y="0" width="7" height="1080" style=" fill:#000050" />
<rect x="631" y="0" width="7" height="1080" style=" fill:#000051" />
<rect x="638" y="0" width="7" height="1080" style=" fill:#000052" />
<rect x="645" y="0" width="7" height="1080" style=" fill:#000053" />
<rect x="652" y="0" width="7" height="1080" style=" fill:#000054" />
<rect x="659" y="0" width="7" height="1080" style=" fill:#000055" />
<rect x="666" y="0" width="7" height="1080" style=" fill:#000056" />
<rect x="673" y="0" width="7" height="1080" style=" fill:#000057" />
<rect x="680" y="0" width="7" height="1080" style=" fill:#000058" />
<rect x="687" y="0" width="7" height="1080" style=" fill:#000059" />
<rect x="694" y="0" width="7" height="1080" style=" fill:#00005a" />
<rect x="701" y="0" width="7" height="1080" style=" fill:#00005b" />
<rect x="708" y="0" width="7" height="1080" style=" fill:#00005c" />
<rect x="715" y="0" width="7" height="1080" style=" fill:#00005d" />
<rect x="722" y="0" width="7" height="1080" style=" fill:#00005e" />
<rect x="729" y="0" width="7" height="1080" style=" fill:#00005f" />
<rect x="736" y="0" width="7" height="1080" style=" fill:#000060" />
<rect x="743" y="0" width="7" height="1080" style=" fill:#000061" />
<rect x="750" y="0" width="7" height="1080" style=" fill:#000062" />
<rect x="757" y="0" width="7" height="1080" style=" fill:#000063" />
<rect x="764" y="0" width="7" height="1080" style=" fill:#000064" />
<rect x="771" y="0" width="7" height="1080" style=" fill:#000065" />
<rect x="778" y="0" width="7" height="1080" style=" fill:#000066" />
<rect x="785" y="0" width="7" height="1080" style=" fill:#000067" />
<rect x="792" y="0" width="7" height="1080" style=" fill:#000068" />
<rect x="799" y="0" width="7" height="1080" style=" fill:#000069" />
<rect x="806" y="0" width="7" height="1080" style=" fill:#00006a" />
<rect x="813" y="0" width="7" height="1080" style=" fill:#00006b" />
<rect x="820" y="0" width="7" height="1080" style=" fill:#00006c" />
<rect x="827" y="0" width="7" height="1080" style=" fill:#00006d" />
<rect x="834" y="0" width="7" height="1080" style=" fill:#00006e" />
<rect x="841" y="0" width="7" height="1080" style=" fill:#00006f" />
<rect x="848" y="0" width="7" height="1080" style=" fill:#000070" />
<rect x="855" y="0" width="7" height="1080" style=" fill:#000071" />
<rect x="862" y="0" width="7" height="1080" style=" fill:#000072" />
<rect x="869" y="0" width="7" height="1080" style=" fill:#000073" />
<rect x="876" y="0" width="7" height="1080" style=" fill:#000074" />
<rect x="883" y="0" width="7" height="1080" style=" fill:#000075" />
<rect x="890" y="0" width="7" height="1080" style=" fill:#000076" />
<rect x="897" y="0" width="7" height="1080" style=" fill:#000077" />
<rect x="904" y="0" width="7" height="1080" style=" fill:#000078" />
<rect x="911" y="0" width="7" height="1080" style=" fill:#000079" />
<rect x="918" y="0" width="7" height="1080" style=" fill:#00007a" />
<rect x="925" y="0" width="7" height="1080" style=" fill:#00007b" />
<rect x="932" y="0" width="7" height="1080" style=" fill:#00007c" />
<rect x="939" y="0" width="7" height="1080" style=" fill:#00007d" />
<rect x="946" y="0" width="7" height="1080" style=" fill:#00007e" />
<rect x="953" y="0" width="7" height="1080" style=" fill:#00007f" />
<rect x="960" y="0" width="7" height="1080" style=" fill:#000080" />
<rect x="967" y="0" width="7" height="1080" style=" fill:#000081" />
<rect x="974" y="0" width="7" height="1080" style=" fill:#000082" />
<rect x="981" y="0" width="7" height="1080" style=" fill:#000083" />
<rect x="988" y="0" width="7" height="1080" style=" fill:#000084" />
<rect x="995" y="0" width="7" height="1080" style=" fill:#000085" />
<rect x="1002" y="0" width="7" height="1080" style=" fill:#000086" />
<rect x="1009" y="0" width="7" height="1080" style=" fill:#000087" />
<rect x="1016" y="0" width="7" height="1080" style=" fill:#000088" />
<rect x="1023" y="0" width="7" height="1080" style=" fill:#000089" />
<rect x="1030" y="0" width="7" height="1080" style=" fill:#00008a" />
<rect x="1037" y="0" width="7" height="1080" style=" fill:#00008b" />
<rect x="1044" y="0" width="7" height="1080" style=" fill:#00008c" />
<rect x="1051" y="0" width="7" height="1080" style=" fill:#00008d" />
<rect x="1058" y="0" width="7" height="1080" style=" fill:#00008e" />
<rect x="1065" y="0" width="7" height="1080" style=" fill:#00008f" />
<rect x="1072" y="0" width="7" height="1080" style=" fill:#000090" />
<rect x="1079" y="0" width="7" height="1080" style=" fill:#000091" />
<rect x="1086" y="0" width="7" height="1080" style=" fill:#000092" />
<rect x="1093" y="0" width="7" height="1080" style=" fill:#000093" />
<rect x="1100" y="0" width="7" height="1080" style=" fill:#000094" />
<rect x="1107" y="0" width="7" height="1080" style=" fill:#000095" />
<rect x="1114" y="0" width="7" height="1080" style=" fill:#000096" />
<rect x="1121" y="0" width="7" height="1080" style=" fill:#000097" />
<rect x="1128" y="0" width="7" height="1080" style=" fill:#000098" />
<rect x="1135" y="0" width="7" height="1080" style=" fill:#000099" />
<rect x="1142" y="0" width="7" height="1080" style=" fill:#00009a" />
<rect x="1149" y="0" width="7" height="1080" style=" fill:#00009b" />
<rect x="1156" y="0" width="7" height="1080" style=" fill:#00009c" />
<rect x="1163" y="0" width="7" height="1080" style=" fill:#00009d" />
<rect x="1170" y="0" width="7" height="1080" style=" fill:#00009e" />
<rect x="1177" y="0" width="7" height="1080" style=" fill:#00009f" />
<rect x="1184" y="0" width="7" height="1080" style=" fill:#0000a0" />
<rect x="1191" y="0" width="7" height="1080" style=" fill:#0000a1" />
<rect x="1198" y="0" width="7" height="1080" style=" fill:#0000a2" />
<rect x="1205" y="0" width="7" height="1080" style=" fill:#0000a3" />
<rect x="1212" y="0" width="7" height="1080" style=" fill:#0000a4" />
<rect x="1219" y="0" width="7" height="1080" style=" fill:#0000a5" />
<rect x="1226" y="0" width="7" height="1080" style=" fill:#0000a6" />
<rect x="1233" y="0" width="7" height="1080" style=" fill:#0000a7" />
<rect x="1240" y="0" width="7" height="1080" style=" fill:#0000a8" />
<rect x="1247" y="0" width="7" height="1080" style=" fill:#0000a9" />
<rect x="1254" y="0" width="7" height="1080" style=" fill:#0000aa" />
<rect x="1261" y="0" width="7" height="1080" style=" fill:#0000ab" />
<rect x="1268" y="0" width="7" height="1080" style=" fill:#0000ac" />
<rect x="1275" y="0" width="7" height="1080" style=" fill:#0000ad" />
<rect x="1282" y="0" width="7" height="1080" style=" fill:#0000ae" />
<rect x="1289" y="0" width="7" height="1080" style=" fill:#0000af" />
<rect x="1296" y="0" width="7" height="1080" style=" fill:#0000b0" />
<rect x="1303" y="0" width="7" height="1080" style=" fill:#0000b1" />
<rect x="1310" y="0" width="7" height="1080" style=" fill:#0000b2" />
<rect x="1317" y="0" width="7" height="1080" style=" fill:#0000b3" />
<rect x="1324" y="0" width="7" height="1080" style=" fill:#0000b4" />
<rect x="1331" y="0" width="7" height="1080" style=" fill:#0000b5" />
<rect x="1338" y="0" width="7" height="1080" style=" fill:#0000b6" />
<rect x="1345" y="0" width="7" height="1080" style=" fill:#0000b7" />
<rect x="1352" y="0" width="7" height="1080" style=" fill:#0000b8" />
<rect x="1359" y="0" width="7" height="1080" style=" fill:#0000b9" />
<rect x="1366" y="0" width="7" height="1080" style=" fill:#0000ba" />
<rect x="1373" y="0" width="7" height="1080" style=" fill:#0000bb" />
<rect x="1380" y="0" width="7" height="1080" style=" fill:#0000bc" />
<rect x="1387" y="0" width="7" height="1080" style=" fill:#0000bd" />
<rect x="1394" y="0" width="7" height="1080" style=" fill:#0000be" />
<rect x="1401" y="0" width="7" height="1080" style=" fill:#0000bf" />
<rect x="1408" y="0" width="7" height="1080" style=" fill:#0000c0" />
<rect x="1415" y="0" width="7" height="1080" style=" fill:#0000c1" />
<rect x="1422" y="0" width="7" height="1080" style=" fill:#0000c2" />
<rect x="1429" y="0" width="7" height="1080" style=" fill:#0000c3" />
<rect x="1436" y="0" width="7" height="1080" style=" fill:#0000c4" />
<rect x="1443" y="0" width="7" height="1080" style=" fill:#0000c5" />
<rect x="1450" y="0" width="7" height="1080" style=" fill:#0000c6" />
<rect x="1457" y="0" width="7" height="1080" style=" fill:#0000c7" />
<rect x="1464" y="0" width="7" height="1080" style=" fill:#0000c8" />
<rect x="1471" y="0" width="7" height="1080" style=" fill:#0000c9" />
<rect x="1478" y="0" width="7" height="1080" style=" fill:#0000ca" />
<rect x="1485" y="0" width="7" height="1080" style=" fill:#0000cb" />
<rect x="1492" y="0" width="7" height="1080" style=" fill:#0000cc" />
<rect x="1499" y="0" width="7" height="1080" style=" fill:#0000cd" />
<rect x="1506" y="0" width="7" height="1080" style=" fill:#0000ce" />
<rect x="1513" y="0" width="7" height="1080" style=" fill:#0000cf" />
<rect x="1520" y="0" width="7" height="1080" style=" fill:#0000d0" />
<rect x="1527" y="0" width="7" height="1080" style=" fill:#0000d1" />
<rect x="1534" y="0" width="7" height="1080" style=" fill:#0000d2" />
<rect x="1541" y="0" width="7" height="1080" style=" fill:#0000d3" />
<rect x="1548" y="0" width="7" height="1080" style=" fill:#0000d4" />
<rect x="1555" y="0" width="7" height="1080" style=" fill:#0000d5" />
<rect x="1562" y="0" width="7" height="1080" style=" fill:#0000d6" />
<rect x="1569" y="0" width="7" height="1080" style=" fill:#0000d7" />
<rect x="1576" y="0" width="7" height="1080" style=" fill:#0000d8" />
<rect x="1583" y="0" width="7" height="1080" style=" fill:#0000d9" />
<rect x="1590" y="0" width="7" height="1080" style=" fill:#0000da" />
<rect x="1597" y="0" width="7" height="1080" style=" fill:#0000db" />
<rect x="1604" y="0" width="7" height="1080" style=" fill:#0000dc" />
<rect x="1611" y="0" width="7" height="1080" style=" fill:#0000dd" />
<rect x="1618" y="0" width="7" height="1080" style=" fill:#0000de" />
<rect x="1625" y="0" width="7" height="1080" style=" fill:#0000df" />
<rect x="1632" y="0" width="7" height="1080" style=" fill:#0000e0" />
<rect x="1639" y="0" width="7" height="1080" style=" fill:#0000e1" />
<rect x="1646" y="0" width="7" height="1080" style=" fill:#0000e2" />
<rect x="1653" y="0" width="7" height="1080" style=" fill:#0000e3" />
<rect x="1660" y="0" width="7" height="1080" style=" fill:#0000e4" />
<rect x="1667" y="0" width="7" height="1080" style=" fill:#0000e5" />
<rect x="1674" y="0" width="7" height="1080" style=" fill:#0000e6" />
<rect x="1681" y="0" width="7" height="1080" style=" fill:#0000e7" />
<rect x="1688" y="0" width="7" height="1080" style=" fill:#0000e8" />
<rect x="1695" y="0" width="7" height="1080" style=" fill:#0000e9" />
<rect x="1702" y="0" width="7" height="1080" style=" fill:#0000ea" />
<rect x="1709" y="0" width="7" height="1080" style=" fill:#0000eb" />
<rect x="1716" y="0" width="7" height="1080" style=" fill:#0000ec" />
<rect x="1723" y="0" width="7" height="1080" style=" fill:#0000ed" />
<rect x="1730" y="0" width="7" height="1080" style=" fill:#0000ee" />
<rect x="1737" y="0" width="7" height="1080" style=" fill:#0000ef" />
<rect x="1744" y="0" width="7" height="1080" style=" fill:#0000f0" />
<rect x="1751" y="0" width="7" height="1080" style=" fill:#0000f1" />
<rect x="1758" y="0" width="7" height="1080" style=" fill:#0000f2" />
<rect x="1765" y="0" width="7" height="1080" style=" fill:#0000f3" />
<rect x="1772" y="0" width="7" height="1080" style=" fill:#0000f4" />
<rect x="1779" y="0" width="7" height="1080" style=" fill:#0000f5" />
<rect x="1786" y="0" width="7" height="1080" style=" fill:#0000f6" />
<rect x="1793" y="0" width="7" height="1080" style=" fill:#0000f7" />
<rect x="1800" y="0" width="7" height="1080" style=" fill:#0000f8" />
<rect x="1807" y="0" width="7" height="1080" style=" fill:#0000f9" />
<rect x="1814" y="0" width="7" height="1080" style=" fill:#0000fa" />
<rect x="1821" y="0" width="7" height="1080" style=" fill:#0000fb" />
<rect x="1828" y="0" width="7" height="1080" style=" fill:#0000fc" />
<rect x="1835" y="0" width="7" height="1080" style=" fill:#0000fd" />
<rect x="1842" y="0" width="7" height="1080" style=" fill:#0000fe" />
<rect x="1849" y="0" width="7" height="1080" style=" fill:#0000ff" />
<rect x="1856" y="0" width="64" height="1080" style=" fill:#000000" />
</svg>
