<?xml version="1.0" encoding="utf-8"?>
<!DOCTYPE svg PUBLIC "-//W3C//DTD SVG 1.1//EN"
  "http://www.w3.org/Graphics/SVG/1.1/DTD/svg11.dtd">
<svg version="1.1" width="1920px" height="1080px"
  viewBox="0 0 1920 1080"
  preserveAspectRatio="xMidYMid"
  fill-rule="evenodd"
  xmlns="http://www.w3.org/2000/svg"
  xmlns:xlink="http://www.w3.org/1999/xlink">
<rect x="0" y="0" width="1920" height="1080" style=" fill:#000000" />
<rect x="0" y="0" width="64" height="1080" style=" fill:#ffffff" />
<rect x="64" y="0" width="7" height="1080" style=" fill:#000000" />
<rect x="71" y="0" width="7" height="1080" style=" fill:#000100" />
<rect x="78" y="0" width="7" height="1080" style=" fill:#000200" />
<rect x="85" y="0" width="7" height="1080" style=" fill:#000300" />
<rect x="92" y="0" width="7" height="1080" style=" fill:#000400" />
<rect x="99" y="0" width="7" height="1080" style=" fill:#000500" />
<rect x="106" y="0" width="7" height="1080" style=" fill:#000600" />
<rect x="113" y="0" width="7" height="1080" style=" fill:#000700" />
<rect x="120" y="0" width="7" height="1080" style=" fill:#000800" />
<rect x="127" y="0" width="7" height="1080" style=" fill:#000900" />
<rect x="134" y="0" width="7" height="1080" style=" fill:#000a00" />
<rect x="141" y="0" width="7" height="1080" style=" fill:#000b00" />
<rect x="148" y="0" width="7" height="1080" style=" fill:#000c00" />
<rect x="155" y="0" width="7" height="1080" style=" fill:#000d00" />
<rect x="162" y="0" width="7" height="1080" style=" fill:#000e00" />
<rect x="169" y="0" width="7" height="1080" style=" fill:#000f00" />
<rect x="176" y="0" width="7" height="1080" style=" fill:#001000" />
<rect x="183" y="0" width="7" height="1080" style=" fill:#001100" />
<rect x="190" y="0" width="7" height="1080" style=" fill:#001200" />
<rect x="197" y="0" width="7" height="1080" style=" fill:#001300" />
<rect x="204" y="0" width="7" height="1080" style=" fill:#001400" />
<rect x="211" y="0" width="7" height="1080" style=" fill:#001500" />
<rect x="218" y="0" width="7" height="1080" style=" fill:#001600" />
<rect x="225" y="0" width="7" height="1080" style=" fill:#001700" />
<rect x="232" y="0" width="7" height="1080" style=" fill:#001800" />
<rect x="239" y="0" width="7" height="1080" style=" fill:#001900" />
<rect x="246" y="0" width="7" height="1080" style=" fill:#001a00" />
<rect x="253" y="0" width="7" height="1080" style=" fill:#001b00" />
<rect x="260" y="0" width="7" height="1080" style=" fill:#001c00" />
<rect x="267" y="0" width="7" height="1080" style=" fill:#001d00" />
<rect x="274" y="0" width="7" height="1080" style=" fill:#001e00" />
<rect x="281" y="0" width="7" height="1080" style=" fill:#001f00" />
<rect x="288" y="0" width="7" height="1080" style=" fill:#002000" />
<rect x="295" y="0" width="7" height="1080" style=" fill:#002100" />
<rect x="302" y="0" width="7" height="1080" style=" fill:#002200" />
<rect x="309" y="0" width="7" height="1080" style=" fill:#002300" />
<rect x="316" y="0" width="7" height="1080" style=" fill:#002400" />
<rect x="323" y="0" width="7" height="1080" style=" fill:#002500" />
<rect x="330" y="0" width="7" height="1080" style=" fill:#002600" />
<rect x="337" y="0" width="7" height="1080" style=" fill:#002700" />
<rect x="344" y="0" width="7" height="1080" style=" fill:#002800" />
<rect x="351" y="0" width="7" height="1080" style=" fill:#002900" />
<rect x="358" y="0" width="7" height="1080" style=" fill:#002a00" />
<rect x="365" y="0" width="7" height="1080" style=" fill:#002b00" />
<rect x="372" y="0" width="7" height="1080" style=" fill:#002c00" />
<rect x="379" y="0" width="7" height="1080" style=" fill:#002d00" />
<rect x="386" y="0" width="7" height="1080" style=" fill:#002e00" />
<rect x="393" y="0" width="7" height="1080" style=" fill:#002f00" />
<rect x="400" y="0" width="7" height="1080" style=" fill:#003000" />
<rect x="407" y="0" width="7" height="1080" style=" fill:#003100" />
<rect x="414" y="0" width="7" height="1080" style=" fill:#003200" />
<rect x="421" y="0" width="7" height="1080" style=" fill:#003300" />
<rect x="428" y="0" width="7" height="1080" style=" fill:#003400" />
<rect x="435" y="0" width="7" height="1080" style=" fill:#003500" />
<rect x="442" y="0" width="7" height="1080" style=" fill:#003600" />
<rect x="449" y="0" width="7" height="1080" style=" fill:#003700" />
<rect x="456" y="0" width="7" height="1080" style=" fill:#003800" />
<rect x="463" y="0" width="7" height="1080" style=" fill:#003900" />
<rect x="470" y="0" width="7" height="1080" style=" fill:#003a00" />
<rect x="477" y="0" width="7" height="1080" style=" fill:#003b00" />
<rect x="484" y="0" width="7" height="1080" style=" fill:#003c00" />
<rect x="491" y="0" width="7" height="1080" style=" fill:#003d00" />
<rect x="498" y="0" width="7" height="1080" style=" fill:#003e00" />
<rect x="505" y="0" width="7" height="1080" style=" fill:#003f00" />
<rect x="512" y="0" width="7" height="1080" style=" fill:#004000" />
<rect x="519" y="0" width="7" height="1080" style=" fill:#004100" />
<rect x="526" y="0" width="7" height="1080" style=" fill:#004200" />
<rect x="533" y="0" width="7" height="1080" style=" fill:#004300" />
<rect x="540" y="0" width="7" height="1080" style=" fill:#004400" />
<rect x="547" y="0" width="7" height="1080" style=" fill:#004500" />
<rect x="554" y="0" width="7" height="1080" style=" fill:#004600" />
<rect x="561" y="0" width="7" height="1080" style=" fill:#004700" />
<rect x="568" y="0" width="7" height="1080" style=" fill:#004800" />
<rect x="575" y="0" width="7" height="1080" style=" fill:#004900" />
<rect x="582" y="0" width="7" height="1080" style=" fill:#004a00" />
<rect x="589" y="0" width="7" height="1080" style=" fill:#004b00" />
<rect x="596" y="0" width="7" height="1080" style=" fill:#004c00" />
<rect x="603" y="0" width="7" height="1080" style=" fill:#004d00" />
<rect x="610" y="0" width="7" height="1080" style=" fill:#004e00" />
<rect x="617" y="0" width="7" height="1080" style=" fill:#004f00" />
<rect x="624" y="0" width="7" height="1080" style=" fill:#005000" />
<rect x="631" y="0" width="7" height="1080" style=" fill:#005100" />
<rect x="638" y="0" width="7" height="1080" style=" fill:#005200" />
<rect x="645" y="0" width="7" height="1080" style=" fill:#005300" />
<rect x="652" y="0" width="7" height="1080" style=" fill:#005400" />
<rect x="659" y="0" width="7" height="1080" style=" fill:#005500" />
<rect x="666" y="0" width="7" height="1080" style=" fill:#005600" />
<rect x="673" y="0" width="7" height="1080" style=" fill:#005700" />
<rect x="680" y="0" width="7" height="1080" style=" fill:#005800" />
<rect x="687" y="0" width="7" height="1080" style=" fill:#005900" />
<rect x="694" y="0" width="7" height="1080" style=" fill:#005a00" />
<rect x="701" y="0" width="7" height="1080" style=" fill:#005b00" />
<rect x="708" y="0" width="7" height="1080" style=" fill:#005c00" />
<rect x="715" y="0" width="7" height="1080" style=" fill:#005d00" />
<rect x="722" y="0" width="7" height="1080" style=" fill:#005e00" />
<rect x="729" y="0" width="7" height="1080" style=" fill:#005f00" />
<rect x="736" y="0" width="7" height="1080" style=" fill:#006000" />
<rect x="743" y="0" width="7" height="1080" style=" fill:#006100" />
<rect x="750" y="0" width="7" height="1080" style=" fill:#006200" />
<rect x="757" y="0" width="7" height="1080" style=" fill:#006300" />
<rect x="764" y="0" width="7" height="1080" style=" fill:#006400" />
<rect x="771" y="0" width="7" height="1080" style=" fill:#006500" />
<rect x="778" y="0" width="7" height="1080" style=" fill:#006600" />
<rect x="785" y="0" width="7" height="1080" style=" fill:#006700" />
<rect x="792" y="0" width="7" height="1080" style=" fill:#006800" />
<rect x="799" y="0" width="7" height="1080" style=" fill:#006900" />
<rect x="806" y="0" width="7" height="1080" style=" fill:#006a00" />
<rect x="813" y="0" width="7" height="1080" style=" fill:#006b00" />
<rect x="820" y="0" width="7" height="1080" style=" fill:#006c00" />
<rect x="827" y="0" width="7" height="1080" style=" fill:#006d00" />
<rect x="834" y="0" width="7" height="1080" style=" fill:#006e00" />
<rect x="841" y="0" width="7" height="1080" style=" fill:#006f00" />
<rect x="848" y="0" width="7" height="1080" style=" fill:#007000" />
<rect x="855" y="0" width="7" height="1080" style=" fill:#007100" />
<rect x="862" y="0" width="7" height="1080" style=" fill:#007200" />
<rect x="869" y="0" width="7" height="1080" style=" fill:#007300" />
<rect x="876" y="0" width="7" height="1080" style=" fill:#007400" />
<rect x="883" y="0" width="7" height="1080" style=" fill:#007500" />
<rect x="890" y="0" width="7" height="1080" style=" fill:#007600" />
<rect x="897" y="0" width="7" height="1080" style=" fill:#007700" />
<rect x="904" y="0" width="7" height="1080" style=" fill:#007800" />
<rect x="911" y="0" width="7" height="1080" style=" fill:#007900" />
<rect x="918" y="0" width="7" height="1080" style=" fill:#007a00" />
<rect x="925" y="0" width="7" height="1080" style=" fill:#007b00" />
<rect x="932" y="0" width="7" height="1080" style=" fill:#007c00" />
<rect x="939" y="0" width="7" height="1080" style=" fill:#007d00" />
<rect x="946" y="0" width="7" height="1080" style=" fill:#007e00" />
<rect x="953" y="0" width="7" height="1080" style=" fill:#007f00" />
<rect x="960" y="0" width="7" height="1080" style=" fill:#008000" />
<rect x="967" y="0" width="7" height="1080" style=" fill:#008100" />
<rect x="974" y="0" width="7" height="1080" style=" fill:#008200" />
<rect x="981" y="0" width="7" height="1080" style=" fill:#008300" />
<rect x="988" y="0" width="7" height="1080" style=" fill:#008400" />
<rect x="995" y="0" width="7" height="1080" style=" fill:#008500" />
<rect x="1002" y="0" width="7" height="1080" style=" fill:#008600" />
<rect x="1009" y="0" width="7" height="1080" style=" fill:#008700" />
<rect x="1016" y="0" width="7" height="1080" style=" fill:#008800" />
<rect x="1023" y="0" width="7" height="1080" style=" fill:#008900" />
<rect x="1030" y="0" width="7" height="1080" style=" fill:#008a00" />
<rect x="1037" y="0" width="7" height="1080" style=" fill:#008b00" />
<rect x="1044" y="0" width="7" height="1080" style=" fill:#008c00" />
<rect x="1051" y="0" width="7" height="1080" style=" fill:#008d00" />
<rect x="1058" y="0" width="7" height="1080" style=" fill:#008e00" />
<rect x="1065" y="0" width="7" height="1080" style=" fill:#008f00" />
<rect x="1072" y="0" width="7" height="1080" style=" fill:#009000" />
<rect x="1079" y="0" width="7" height="1080" style=" fill:#009100" />
<rect x="1086" y="0" width="7" height="1080" style=" fill:#009200" />
<rect x="1093" y="0" width="7" height="1080" style=" fill:#009300" />
<rect x="1100" y="0" width="7" height="1080" style=" fill:#009400" />
<rect x="1107" y="0" width="7" height="1080" style=" fill:#009500" />
<rect x="1114" y="0" width="7" height="1080" style=" fill:#009600" />
<rect x="1121" y="0" width="7" height="1080" style=" fill:#009700" />
<rect x="1128" y="0" width="7" height="1080" style=" fill:#009800" />
<rect x="1135" y="0" width="7" height="1080" style=" fill:#009900" />
<rect x="1142" y="0" width="7" height="1080" style=" fill:#009a00" />
<rect x="1149" y="0" width="7" height="1080" style=" fill:#009b00" />
<rect x="1156" y="0" width="7" height="1080" style=" fill:#009c00" />
<rect x="1163" y="0" width="7" height="1080" style=" fill:#009d00" />
<rect x="1170" y="0" width="7" height="1080" style=" fill:#009e00" />
<rect x="1177" y="0" width="7" height="1080" style=" fill:#009f00" />
<rect x="1184" y="0" width="7" height="1080" style=" fill:#00a000" />
<rect x="1191" y="0" width="7" height="1080" style=" fill:#00a100" />
<rect x="1198" y="0" width="7" height="1080" style=" fill:#00a200" />
<rect x="1205" y="0" width="7" height="1080" style=" fill:#00a300" />
<rect x="1212" y="0" width="7" height="1080" style=" fill:#00a400" />
<rect x="1219" y="0" width="7" height="1080" style=" fill:#00a500" />
<rect x="1226" y="0" width="7" height="1080" style=" fill:#00a600" />
<rect x="1233" y="0" width="7" height="1080" style=" fill:#00a700" />
<rect x="1240" y="0" width="7" height="1080" style=" fill:#00a800" />
<rect x="1247" y="0" width="7" height="1080" style=" fill:#00a900" />
<rect x="1254" y="0" width="7" height="1080" style=" fill:#00aa00" />
<rect x="1261" y="0" width="7" height="1080" style=" fill:#00ab00" />
<rect x="1268" y="0" width="7" height="1080" style=" fill:#00ac00" />
<rect x="1275" y="0" width="7" height="1080" style=" fill:#00ad00" />
<rect x="1282" y="0" width="7" height="1080" style=" fill:#00ae00" />
<rect x="1289" y="0" width="7" height="1080" style=" fill:#00af00" />
<rect x="1296" y="0" width="7" height="1080" style=" fill:#00b000" />
<rect x="1303" y="0" width="7" height="1080" style=" fill:#00b100" />
<rect x="1310" y="0" width="7" height="1080" style=" fill:#00b200" />
<rect x="1317" y="0" width="7" height="1080" style=" fill:#00b300" />
<rect x="1324" y="0" width="7" height="1080" style=" fill:#00b400" />
<rect x="1331" y="0" width="7" height="1080" style=" fill:#00b500" />
<rect x="1338" y="0" width="7" height="1080" style=" fill:#00b600" />
<rect x="1345" y="0" width="7" height="1080" style=" fill:#00b700" />
<rect x="1352" y="0" width="7" height="1080" style=" fill:#00b800" />
<rect x="1359" y="0" width="7" height="1080" style=" fill:#00b900" />
<rect x="1366" y="0" width="7" height="1080" style=" fill:#00ba00" />
<rect x="1373" y="0" width="7" height="1080" style=" fill:#00bb00" />
<rect x="1380" y="0" width="7" height="1080" style=" fill:#00bc00" />
<rect x="1387" y="0" width="7" height="1080" style=" fill:#00bd00" />
<rect x="1394" y="0" width="7" height="1080" style=" fill:#00be00" />
<rect x="1401" y="0" width="7" height="1080" style=" fill:#00bf00" />
<rect x="1408" y="0" width="7" height="1080" style=" fill:#00c000" />
<rect x="1415" y="0" width="7" height="1080" style=" fill:#00c100" />
<rect x="1422" y="0" width="7" height="1080" style=" fill:#00c200" />
<rect x="1429" y="0" width="7" height="1080" style=" fill:#00c300" />
<rect x="1436" y="0" width="7" height="1080" style=" fill:#00c400" />
<rect x="1443" y="0" width="7" height="1080" style=" fill:#00c500" />
<rect x="1450" y="0" width="7" height="1080" style=" fill:#00c600" />
<rect x="1457" y="0" width="7" height="1080" style=" fill:#00c700" />
<rect x="1464" y="0" width="7" height="1080" style=" fill:#00c800" />
<rect x="1471" y="0" width="7" height="1080" style=" fill:#00c900" />
<rect x="1478" y="0" width="7" height="1080" style=" fill:#00ca00" />
<rect x="1485" y="0" width="7" height="1080" style=" fill:#00cb00" />
<rect x="1492" y="0" width="7" height="1080" style=" fill:#00cc00" />
<rect x="1499" y="0" width="7" height="1080" style=" fill:#00cd00" />
<rect x="1506" y="0" width="7" height="1080" style=" fill:#00ce00" />
<rect x="1513" y="0" width="7" height="1080" style=" fill:#00cf00" />
<rect x="1520" y="0" width="7" height="1080" style=" fill:#00d000" />
<rect x="1527" y="0" width="7" height="1080" style=" fill:#00d100" />
<rect x="1534" y="0" width="7" height="1080" style=" fill:#00d200" />
<rect x="1541" y="0" width="7" height="1080" style=" fill:#00d300" />
<rect x="1548" y="0" width="7" height="1080" style=" fill:#00d400" />
<rect x="1555" y="0" width="7" height="1080" style=" fill:#00d500" />
<rect x="1562" y="0" width="7" height="1080" style=" fill:#00d600" />
<rect x="1569" y="0" width="7" height="1080" style=" fill:#00d700" />
<rect x="1576" y="0" width="7" height="1080" style=" fill:#00d800" />
<rect x="1583" y="0" width="7" height="1080" style=" fill:#00d900" />
<rect x="1590" y="0" width="7" height="1080" style=" fill:#00da00" />
<rect x="1597" y="0" width="7" height="1080" style=" fill:#00db00" />
<rect x="1604" y="0" width="7" height="1080" style=" fill:#00dc00" />
<rect x="1611" y="0" width="7" height="1080" style=" fill:#00dd00" />
<rect x="1618" y="0" width="7" height="1080" style=" fill:#00de00" />
<rect x="1625" y="0" width="7" height="1080" style=" fill:#00df00" />
<rect x="1632" y="0" width="7" height="1080" style=" fill:#00e000" />
<rect x="1639" y="0" width="7" height="1080" style=" fill:#00e100" />
<rect x="1646" y="0" width="7" height="1080" style=" fill:#00e200" />
<rect x="1653" y="0" width="7" height="1080" style=" fill:#00e300" />
<rect x="1660" y="0" width="7" height="1080" style=" fill:#00e400" />
<rect x="1667" y="0" width="7" height="1080" style=" fill:#00e500" />
<rect x="1674" y="0" width="7" height="1080" style=" fill:#00e600" />
<rect x="1681" y="0" width="7" height="1080" style=" fill:#00e700" />
<rect x="1688" y="0" width="7" height="1080" style=" fill:#00e800" />
<rect x="1695" y="0" width="7" height="1080" style=" fill:#00e900" />
<rect x="1702" y="0" width="7" height="1080" style=" fill:#00ea00" />
<rect x="1709" y="0" width="7" height="1080" style=" fill:#00eb00" />
<rect x="1716" y="0" width="7" height="1080" style=" fill:#00ec00" />
<rect x="1723" y="0" width="7" height="1080" style=" fill:#00ed00" />
<rect x="1730" y="0" width="7" height="1080" style=" fill:#00ee00" />
<rect x="1737" y="0" width="7" height="1080" style=" fill:#00ef00" />
<rect x="1744" y="0" width="7" height="1080" style=" fill:#00f000" />
<rect x="1751" y="0" width="7" height="1080" style=" fill:#00f100" />
<rect x="1758" y="0" width="7" height="1080" style=" fill:#00f200" />
<rect x="1765" y="0" width="7" height="1080" style=" fill:#00f300" />
<rect x="1772" y="0" width="7" height="1080" style=" fill:#00f400" />
<rect x="1779" y="0" width="7" height="1080" style=" fill:#00f500" />
<rect x="1786" y="0" width="7" height="1080" style=" fill:#00f600" />
<rect x="1793" y="0" width="7" height="1080" style=" fill:#00f700" />
<rect x="1800" y="0" width="7" height="1080" style=" fill:#00f800" />
<rect x="1807" y="0" width="7" height="1080" style=" fill:#00f900" />
<rect x="1814" y="0" width="7" height="1080" style=" fill:#00fa00" />
<rect x="1821" y="0" width="7" height="1080" style=" fill:#00fb00" />
<rect x="1828" y="0" width="7" height="1080" style=" fill:#00fc00" />
<rect x="1835" y="0" width="7" height="1080" style=" fill:#00fd00" />
<rect x="1842" y="0" width="7" height="1080" style=" fill:#00fe00" />
<rect x="1849" y="0" width="7" height="1080" style=" fill:#00ff00" />
<rect x="1856" y="0" width="64" height="1080" style=" fill:#000000" />
</svg>
