<?xml version="1.0" encoding="utf-8"?>
<!DOCTYPE svg PUBLIC "-//W3C//DTD SVG 1.1//EN"
  "http://www.w3.org/Graphics/SVG/1.1/DTD/svg11.dtd">
<svg version="1.1" width="1920px" height="1080px"
  viewBox="0 0 1920 1080"
  preserveAspectRatio="xMidYMid"
  fill-rule="evenodd"
  xmlns="http://www.w3.org/2000/svg"
  xmlns:xlink="http://www.w3.org/1999/xlink">
<rect x="0" y="0" width="1920" height="1080" style=" fill:#000000" />
<rect x="0" y="0" width="64" height="1080" style=" fill:#ffffff" />
<rect x="64" y="0" width="7" height="1080" style=" fill:#000000" />
<rect x="71" y="0" width="7" height="1080" style=" fill:#010101" />
<rect x="78" y="0" width="7" height="1080" style=" fill:#020202" />
<rect x="85" y="0" width="7" height="1080" style=" fill:#030303" />
<rect x="92" y="0" width="7" height="1080" style=" fill:#040404" />
<rect x="99" y="0" width="7" height="1080" style=" fill:#050505" />
<rect x="106" y="0" width="7" height="1080" style=" fill:#060606" />
<rect x="113" y="0" width="7" height="1080" style=" fill:#070707" />
<rect x="120" y="0" width="7" height="1080" style=" fill:#080808" />
<rect x="127" y="0" width="7" height="1080" style=" fill:#090909" />
<rect x="134" y="0" width="7" height="1080" style=" fill:#0a0a0a" />
<rect x="141" y="0" width="7" height="1080" style=" fill:#0b0b0b" />
<rect x="148" y="0" width="7" height="1080" style=" fill:#0c0c0c" />
<rect x="155" y="0" width="7" height="1080" style=" fill:#0d0d0d" />
<rect x="162" y="0" width="7" height="1080" style=" fill:#0e0e0e" />
<rect x="169" y="0" width="7" height="1080" style=" fill:#0f0f0f" />
<rect x="176" y="0" width="7" height="1080" style=" fill:#101010" />
<rect x="183" y="0" width="7" height="1080" style=" fill:#111111" />
<rect x="190" y="0" width="7" height="1080" style=" fill:#121212" />
<rect x="197" y="0" width="7" height="1080" style=" fill:#131313" />
<rect x="204" y="0" width="7" height="1080" style=" fill:#141414" />
<rect x="211" y="0" width="7" height="1080" style=" fill:#151515" />
<rect x="218" y="0" width="7" height="1080" style=" fill:#161616" />
<rect x="225" y="0" width="7" height="1080" style=" fill:#171717" />
<rect x="232" y="0" width="7" height="1080" style=" fill:#181818" />
<rect x="239" y="0" width="7" height="1080" style=" fill:#191919" />
<rect x="246" y="0" width="7" height="1080" style=" fill:#1a1a1a" />
<rect x="253" y="0" width="7" height="1080" style=" fill:#1b1b1b" />
<rect x="260" y="0" width="7" height="1080" style=" fill:#1c1c1c" />
<rect x="267" y="0" width="7" height="1080" style=" fill:#1d1d1d" />
<rect x="274" y="0" width="7" height="1080" style=" fill:#1e1e1e" />
<rect x="281" y="0" width="7" height="1080" style=" fill:#1f1f1f" />
<rect x="288" y="0" width="7" height="1080" style=" fill:#202020" />
<rect x="295" y="0" width="7" height="1080" style=" fill:#212121" />
<rect x="302" y="0" width="7" height="1080" style=" fill:#222222" />
<rect x="309" y="0" width="7" height="1080" style=" fill:#232323" />
<rect x="316" y="0" width="7" height="1080" style=" fill:#242424" />
<rect x="323" y="0" width="7" height="1080" style=" fill:#252525" />
<rect x="330" y="0" width="7" height="1080" style=" fill:#262626" />
<rect x="337" y="0" width="7" height="1080" style=" fill:#272727" />
<rect x="344" y="0" width="7" height="1080" style=" fill:#282828" />
<rect x="351" y="0" width="7" height="1080" style=" fill:#292929" />
<rect x="358" y="0" width="7" height="1080" style=" fill:#2a2a2a" />
<rect x="365" y="0" width="7" height="1080" style=" fill:#2b2b2b" />
<rect x="372" y="0" width="7" height="1080" style=" fill:#2c2c2c" />
<rect x="379" y="0" width="7" height="1080" style=" fill:#2d2d2d" />
<rect x="386" y="0" width="7" height="1080" style=" fill:#2e2e2e" />
<rect x="393" y="0" width="7" height="1080" style=" fill:#2f2f2f" />
<rect x="400" y="0" width="7" height="1080" style=" fill:#303030" />
<rect x="407" y="0" width="7" height="1080" style=" fill:#313131" />
<rect x="414" y="0" width="7" height="1080" style=" fill:#323232" />
<rect x="421" y="0" width="7" height="1080" style=" fill:#333333" />
<rect x="428" y="0" width="7" height="1080" style=" fill:#343434" />
<rect x="435" y="0" width="7" height="1080" style=" fill:#353535" />
<rect x="442" y="0" width="7" height="1080" style=" fill:#363636" />
<rect x="449" y="0" width="7" height="1080" style=" fill:#373737" />
<rect x="456" y="0" width="7" height="1080" style=" fill:#383838" />
<rect x="463" y="0" width="7" height="1080" style=" fill:#393939" />
<rect x="470" y="0" width="7" height="1080" style=" fill:#3a3a3a" />
<rect x="477" y="0" width="7" height="1080" style=" fill:#3b3b3b" />
<rect x="484" y="0" width="7" height="1080" style=" fill:#3c3c3c" />
<rect x="491" y="0" width="7" height="1080" style=" fill:#3d3d3d" />
<rect x="498" y="0" width="7" height="1080" style=" fill:#3e3e3e" />
<rect x="505" y="0" width="7" height="1080" style=" fill:#3f3f3f" />
<rect x="512" y="0" width="7" height="1080" style=" fill:#404040" />
<rect x="519" y="0" width="7" height="1080" style=" fill:#414141" />
<rect x="526" y="0" width="7" height="1080" style=" fill:#424242" />
<rect x="533" y="0" width="7" height="1080" style=" fill:#434343" />
<rect x="540" y="0" width="7" height="1080" style=" fill:#444444" />
<rect x="547" y="0" width="7" height="1080" style=" fill:#454545" />
<rect x="554" y="0" width="7" height="1080" style=" fill:#464646" />
<rect x="561" y="0" width="7" height="1080" style=" fill:#474747" />
<rect x="568" y="0" width="7" height="1080" style=" fill:#484848" />
<rect x="575" y="0" width="7" height="1080" style=" fill:#494949" />
<rect x="582" y="0" width="7" height="1080" style=" fill:#4a4a4a" />
<rect x="589" y="0" width="7" height="1080" style=" fill:#4b4b4b" />
<rect x="596" y="0" width="7" height="1080" style=" fill:#4c4c4c" />
<rect x="603" y="0" width="7" height="1080" style=" fill:#4d4d4d" />
<rect x="610" y="0" width="7" height="1080" style=" fill:#4e4e4e" />
<rect x="617" y="0" width="7" height="1080" style=" fill:#4f4f4f" />
<rect x="624" y="0" width="7" height="1080" style=" fill:#505050" />
<rect x="631" y="0" width="7" height="1080" style=" fill:#515151" />
<rect x="638" y="0" width="7" height="1080" style=" fill:#525252" />
<rect x="645" y="0" width="7" height="1080" style=" fill:#535353" />
<rect x="652" y="0" width="7" height="1080" style=" fill:#545454" />
<rect x="659" y="0" width="7" height="1080" style=" fill:#555555" />
<rect x="666" y="0" width="7" height="1080" style=" fill:#565656" />
<rect x="673" y="0" width="7" height="1080" style=" fill:#575757" />
<rect x="680" y="0" width="7" height="1080" style=" fill:#585858" />
<rect x="687" y="0" width="7" height="1080" style=" fill:#595959" />
<rect x="694" y="0" width="7" height="1080" style=" fill:#5a5a5a" />
<rect x="701" y="0" width="7" height="1080" style=" fill:#5b5b5b" />
<rect x="708" y="0" width="7" height="1080" style=" fill:#5c5c5c" />
<rect x="715" y="0" width="7" height="1080" style=" fill:#5d5d5d" />
<rect x="722" y="0" width="7" height="1080" style=" fill:#5e5e5e" />
<rect x="729" y="0" width="7" height="1080" style=" fill:#5f5f5f" />
<rect x="736" y="0" width="7" height="1080" style=" fill:#606060" />
<rect x="743" y="0" width="7" height="1080" style=" fill:#616161" />
<rect x="750" y="0" width="7" height="1080" style=" fill:#626262" />
<rect x="757" y="0" width="7" height="1080" style=" fill:#636363" />
<rect x="764" y="0" width="7" height="1080" style=" fill:#646464" />
<rect x="771" y="0" width="7" height="1080" style=" fill:#656565" />
<rect x="778" y="0" width="7" height="1080" style=" fill:#666666" />
<rect x="785" y="0" width="7" height="1080" style=" fill:#676767" />
<rect x="792" y="0" width="7" height="1080" style=" fill:#686868" />
<rect x="799" y="0" width="7" height="1080" style=" fill:#696969" />
<rect x="806" y="0" width="7" height="1080" style=" fill:#6a6a6a" />
<rect x="813" y="0" width="7" height="1080" style=" fill:#6b6b6b" />
<rect x="820" y="0" width="7" height="1080" style=" fill:#6c6c6c" />
<rect x="827" y="0" width="7" height="1080" style=" fill:#6d6d6d" />
<rect x="834" y="0" width="7" height="1080" style=" fill:#6e6e6e" />
<rect x="841" y="0" width="7" height="1080" style=" fill:#6f6f6f" />
<rect x="848" y="0" width="7" height="1080" style=" fill:#707070" />
<rect x="855" y="0" width="7" height="1080" style=" fill:#717171" />
<rect x="862" y="0" width="7" height="1080" style=" fill:#727272" />
<rect x="869" y="0" width="7" height="1080" style=" fill:#737373" />
<rect x="876" y="0" width="7" height="1080" style=" fill:#747474" />
<rect x="883" y="0" width="7" height="1080" style=" fill:#757575" />
<rect x="890" y="0" width="7" height="1080" style=" fill:#767676" />
<rect x="897" y="0" width="7" height="1080" style=" fill:#777777" />
<rect x="904" y="0" width="7" height="1080" style=" fill:#787878" />
<rect x="911" y="0" width="7" height="1080" style=" fill:#797979" />
<rect x="918" y="0" width="7" height="1080" style=" fill:#7a7a7a" />
<rect x="925" y="0" width="7" height="1080" style=" fill:#7b7b7b" />
<rect x="932" y="0" width="7" height="1080" style=" fill:#7c7c7c" />
<rect x="939" y="0" width="7" height="1080" style=" fill:#7d7d7d" />
<rect x="946" y="0" width="7" height="1080" style=" fill:#7e7e7e" />
<rect x="953" y="0" width="7" height="1080" style=" fill:#7f7f7f" />
<rect x="960" y="0" width="7" height="1080" style=" fill:#808080" />
<rect x="967" y="0" width="7" height="1080" style=" fill:#818181" />
<rect x="974" y="0" width="7" height="1080" style=" fill:#828282" />
<rect x="981" y="0" width="7" height="1080" style=" fill:#838383" />
<rect x="988" y="0" width="7" height="1080" style=" fill:#848484" />
<rect x="995" y="0" width="7" height="1080" style=" fill:#858585" />
<rect x="1002" y="0" width="7" height="1080" style=" fill:#868686" />
<rect x="1009" y="0" width="7" height="1080" style=" fill:#878787" />
<rect x="1016" y="0" width="7" height="1080" style=" fill:#888888" />
<rect x="1023" y="0" width="7" height="1080" style=" fill:#898989" />
<rect x="1030" y="0" width="7" height="1080" style=" fill:#8a8a8a" />
<rect x="1037" y="0" width="7" height="1080" style=" fill:#8b8b8b" />
<rect x="1044" y="0" width="7" height="1080" style=" fill:#8c8c8c" />
<rect x="1051" y="0" width="7" height="1080" style=" fill:#8d8d8d" />
<rect x="1058" y="0" width="7" height="1080" style=" fill:#8e8e8e" />
<rect x="1065" y="0" width="7" height="1080" style=" fill:#8f8f8f" />
<rect x="1072" y="0" width="7" height="1080" style=" fill:#909090" />
<rect x="1079" y="0" width="7" height="1080" style=" fill:#919191" />
<rect x="1086" y="0" width="7" height="1080" style=" fill:#929292" />
<rect x="1093" y="0" width="7" height="1080" style=" fill:#939393" />
<rect x="1100" y="0" width="7" height="1080" style=" fill:#949494" />
<rect x="1107" y="0" width="7" height="1080" style=" fill:#959595" />
<rect x="1114" y="0" width="7" height="1080" style=" fill:#969696" />
<rect x="1121" y="0" width="7" height="1080" style=" fill:#979797" />
<rect x="1128" y="0" width="7" height="1080" style=" fill:#989898" />
<rect x="1135" y="0" width="7" height="1080" style=" fill:#999999" />
<rect x="1142" y="0" width="7" height="1080" style=" fill:#9a9a9a" />
<rect x="1149" y="0" width="7" height="1080" style=" fill:#9b9b9b" />
<rect x="1156" y="0" width="7" height="1080" style=" fill:#9c9c9c" />
<rect x="1163" y="0" width="7" height="1080" style=" fill:#9d9d9d" />
<rect x="1170" y="0" width="7" height="1080" style=" fill:#9e9e9e" />
<rect x="1177" y="0" width="7" height="1080" style=" fill:#9f9f9f" />
<rect x="1184" y="0" width="7" height="1080" style=" fill:#a0a0a0" />
<rect x="1191" y="0" width="7" height="1080" style=" fill:#a1a1a1" />
<rect x="1198" y="0" width="7" height="1080" style=" fill:#a2a2a2" />
<rect x="1205" y="0" width="7" height="1080" style=" fill:#a3a3a3" />
<rect x="1212" y="0" width="7" height="1080" style=" fill:#a4a4a4" />
<rect x="1219" y="0" width="7" height="1080" style=" fill:#a5a5a5" />
<rect x="1226" y="0" width="7" height="1080" style=" fill:#a6a6a6" />
<rect x="1233" y="0" width="7" height="1080" style=" fill:#a7a7a7" />
<rect x="1240" y="0" width="7" height="1080" style=" fill:#a8a8a8" />
<rect x="1247" y="0" width="7" height="1080" style=" fill:#a9a9a9" />
<rect x="1254" y="0" width="7" height="1080" style=" fill:#aaaaaa" />
<rect x="1261" y="0" width="7" height="1080" style=" fill:#ababab" />
<rect x="1268" y="0" width="7" height="1080" style=" fill:#acacac" />
<rect x="1275" y="0" width="7" height="1080" style=" fill:#adadad" />
<rect x="1282" y="0" width="7" height="1080" style=" fill:#aeaeae" />
<rect x="1289" y="0" width="7" height="1080" style=" fill:#afafaf" />
<rect x="1296" y="0" width="7" height="1080" style=" fill:#b0b0b0" />
<rect x="1303" y="0" width="7" height="1080" style=" fill:#b1b1b1" />
<rect x="1310" y="0" width="7" height="1080" style=" fill:#b2b2b2" />
<rect x="1317" y="0" width="7" height="1080" style=" fill:#b3b3b3" />
<rect x="1324" y="0" width="7" height="1080" style=" fill:#b4b4b4" />
<rect x="1331" y="0" width="7" height="1080" style=" fill:#b5b5b5" />
<rect x="1338" y="0" width="7" height="1080" style=" fill:#b6b6b6" />
<rect x="1345" y="0" width="7" height="1080" style=" fill:#b7b7b7" />
<rect x="1352" y="0" width="7" height="1080" style=" fill:#b8b8b8" />
<rect x="1359" y="0" width="7" height="1080" style=" fill:#b9b9b9" />
<rect x="1366" y="0" width="7" height="1080" style=" fill:#bababa" />
<rect x="1373" y="0" width="7" height="1080" style=" fill:#bbbbbb" />
<rect x="1380" y="0" width="7" height="1080" style=" fill:#bcbcbc" />
<rect x="1387" y="0" width="7" height="1080" style=" fill:#bdbdbd" />
<rect x="1394" y="0" width="7" height="1080" style=" fill:#bebebe" />
<rect x="1401" y="0" width="7" height="1080" style=" fill:#bfbfbf" />
<rect x="1408" y="0" width="7" height="1080" style=" fill:#c0c0c0" />
<rect x="1415" y="0" width="7" height="1080" style=" fill:#c1c1c1" />
<rect x="1422" y="0" width="7" height="1080" style=" fill:#c2c2c2" />
<rect x="1429" y="0" width="7" height="1080" style=" fill:#c3c3c3" />
<rect x="1436" y="0" width="7" height="1080" style=" fill:#c4c4c4" />
<rect x="1443" y="0" width="7" height="1080" style=" fill:#c5c5c5" />
<rect x="1450" y="0" width="7" height="1080" style=" fill:#c6c6c6" />
<rect x="1457" y="0" width="7" height="1080" style=" fill:#c7c7c7" />
<rect x="1464" y="0" width="7" height="1080" style=" fill:#c8c8c8" />
<rect x="1471" y="0" width="7" height="1080" style=" fill:#c9c9c9" />
<rect x="1478" y="0" width="7" height="1080" style=" fill:#cacaca" />
<rect x="1485" y="0" width="7" height="1080" style=" fill:#cbcbcb" />
<rect x="1492" y="0" width="7" height="1080" style=" fill:#cccccc" />
<rect x="1499" y="0" width="7" height="1080" style=" fill:#cdcdcd" />
<rect x="1506" y="0" width="7" height="1080" style=" fill:#cecece" />
<rect x="1513" y="0" width="7" height="1080" style=" fill:#cfcfcf" />
<rect x="1520" y="0" width="7" height="1080" style=" fill:#d0d0d0" />
<rect x="1527" y="0" width="7" height="1080" style=" fill:#d1d1d1" />
<rect x="1534" y="0" width="7" height="1080" style=" fill:#d2d2d2" />
<rect x="1541" y="0" width="7" height="1080" style=" fill:#d3d3d3" />
<rect x="1548" y="0" width="7" height="1080" style=" fill:#d4d4d4" />
<rect x="1555" y="0" width="7" height="1080" style=" fill:#d5d5d5" />
<rect x="1562" y="0" width="7" height="1080" style=" fill:#d6d6d6" />
<rect x="1569" y="0" width="7" height="1080" style=" fill:#d7d7d7" />
<rect x="1576" y="0" width="7" height="1080" style=" fill:#d8d8d8" />
<rect x="1583" y="0" width="7" height="1080" style=" fill:#d9d9d9" />
<rect x="1590" y="0" width="7" height="1080" style=" fill:#dadada" />
<rect x="1597" y="0" width="7" height="1080" style=" fill:#dbdbdb" />
<rect x="1604" y="0" width="7" height="1080" style=" fill:#dcdcdc" />
<rect x="1611" y="0" width="7" height="1080" style=" fill:#dddddd" />
<rect x="1618" y="0" width="7" height="1080" style=" fill:#dedede" />
<rect x="1625" y="0" width="7" height="1080" style=" fill:#dfdfdf" />
<rect x="1632" y="0" width="7" height="1080" style=" fill:#e0e0e0" />
<rect x="1639" y="0" width="7" height="1080" style=" fill:#e1e1e1" />
<rect x="1646" y="0" width="7" height="1080" style=" fill:#e2e2e2" />
<rect x="1653" y="0" width="7" height="1080" style=" fill:#e3e3e3" />
<rect x="1660" y="0" width="7" height="1080" style=" fill:#e4e4e4" />
<rect x="1667" y="0" width="7" height="1080" style=" fill:#e5e5e5" />
<rect x="1674" y="0" width="7" height="1080" style=" fill:#e6e6e6" />
<rect x="1681" y="0" width="7" height="1080" style=" fill:#e7e7e7" />
<rect x="1688" y="0" width="7" height="1080" style=" fill:#e8e8e8" />
<rect x="1695" y="0" width="7" height="1080" style=" fill:#e9e9e9" />
<rect x="1702" y="0" width="7" height="1080" style=" fill:#eaeaea" />
<rect x="1709" y="0" width="7" height="1080" style=" fill:#ebebeb" />
<rect x="1716" y="0" width="7" height="1080" style=" fill:#ececec" />
<rect x="1723" y="0" width="7" height="1080" style=" fill:#ededed" />
<rect x="1730" y="0" width="7" height="1080" style=" fill:#eeeeee" />
<rect x="1737" y="0" width="7" height="1080" style=" fill:#efefef" />
<rect x="1744" y="0" width="7" height="1080" style=" fill:#f0f0f0" />
<rect x="1751" y="0" width="7" height="1080" style=" fill:#f1f1f1" />
<rect x="1758" y="0" width="7" height="1080" style=" fill:#f2f2f2" />
<rect x="1765" y="0" width="7" height="1080" style=" fill:#f3f3f3" />
<rect x="1772" y="0" width="7" height="1080" style=" fill:#f4f4f4" />
<rect x="1779" y="0" width="7" height="1080" style=" fill:#f5f5f5" />
<rect x="1786" y="0" width="7" height="1080" style=" fill:#f6f6f6" />
<rect x="1793" y="0" width="7" height="1080" style=" fill:#f7f7f7" />
<rect x="1800" y="0" width="7" height="1080" style=" fill:#f8f8f8" />
<rect x="1807" y="0" width="7" height="1080" style=" fill:#f9f9f9" />
<rect x="1814" y="0" width="7" height="1080" style=" fill:#fafafa" />
<rect x="1821" y="0" width="7" height="1080" style=" fill:#fbfbfb" />
<rect x="1828" y="0" width="7" height="1080" style=" fill:#fcfcfc" />
<rect x="1835" y="0" width="7" height="1080" style=" fill:#fdfdfd" />
<rect x="1842" y="0" width="7" height="1080" style=" fill:#fefefe" />
<rect x="1849" y="0" width="7" height="1080" style=" fill:#ffffff" />
<rect x="1856" y="0" width="64" height="1080" style=" fill:#000000" />
</svg>
